%TF.GenerationSoftware,KiCad,Pcbnew,9.0.7*%
%TF.CreationDate,2026-01-08T12:12:57-08:00*%
%TF.ProjectId,voltage_divider_routed,766f6c74-6167-4655-9f64-697669646572,rev?*%
%TF.SameCoordinates,Original*%
%TF.FileFunction,Copper,L2,Bot*%
%TF.FilePolarity,Positive*%
%FSLAX46Y46*%
G04 Gerber Fmt 4.6, Leading zero omitted, Abs format (unit mm)*
G04 Created by KiCad (PCBNEW 9.0.7) date 2026-01-08 12:12:57*
%MOMM*%
%LPD*%
G01*
G04 APERTURE LIST*
%TA.AperFunction,ComponentPad*%
%ADD10R,1.700000X1.700000*%
%TD*%
%TA.AperFunction,ComponentPad*%
%ADD11O,1.700000X1.700000*%
%TD*%
%TA.AperFunction,ViaPad*%
%ADD12C,0.600000*%
%TD*%
%TA.AperFunction,Conductor*%
%ADD13C,0.300000*%
%TD*%
G04 APERTURE END LIST*
D10*
%TO.P,J1,1*%
%TO.N,VIN*%
X105000000Y-111230000D03*
D11*
%TO.P,J1,2*%
%TO.N,GND*%
X105000000Y-113770000D03*
%TD*%
D10*
%TO.P,J2,1*%
%TO.N,VOUT*%
X125000000Y-111230000D03*
D11*
%TO.P,J2,2*%
%TO.N,GND*%
X125000000Y-113770000D03*
%TD*%
D12*
%TO.N,VOUT*%
X115000000Y-107400000D03*
X115000000Y-118000000D03*
%TD*%
D13*
%TO.N,VOUT*%
X115000000Y-107400000D02*
X115000000Y-107500000D01*
X115000000Y-107500000D02*
X115000000Y-107600000D01*
X115000000Y-107600000D02*
X115000000Y-107700000D01*
X115000000Y-107700000D02*
X115000000Y-107800000D01*
X115000000Y-107800000D02*
X115000000Y-107900000D01*
X115000000Y-107900000D02*
X115000000Y-108000000D01*
X115000000Y-108000000D02*
X115000000Y-108100000D01*
X115000000Y-108100000D02*
X115000000Y-108200000D01*
X115000000Y-108200000D02*
X115000000Y-108300000D01*
X115000000Y-108300000D02*
X115000000Y-108400000D01*
X115000000Y-108400000D02*
X115000000Y-108500000D01*
X115000000Y-108500000D02*
X115000000Y-108600000D01*
X115000000Y-108600000D02*
X115000000Y-108700000D01*
X115000000Y-108700000D02*
X115000000Y-108800000D01*
X115000000Y-108800000D02*
X115000000Y-108900000D01*
X115000000Y-108900000D02*
X115000000Y-109000000D01*
X115000000Y-109000000D02*
X115000000Y-109100000D01*
X115000000Y-109100000D02*
X115000000Y-109200000D01*
X115000000Y-109200000D02*
X115000000Y-109300000D01*
X115000000Y-109300000D02*
X115000000Y-109400000D01*
X115000000Y-109400000D02*
X115000000Y-109500000D01*
X115000000Y-109500000D02*
X115000000Y-109600000D01*
X115000000Y-109600000D02*
X115000000Y-109700000D01*
X115000000Y-109700000D02*
X115000000Y-109800000D01*
X115000000Y-109800000D02*
X115000000Y-109900000D01*
X115000000Y-109900000D02*
X115000000Y-110000000D01*
X115000000Y-110000000D02*
X115000000Y-110100000D01*
X115000000Y-110100000D02*
X115000000Y-110200000D01*
X115000000Y-110200000D02*
X115000000Y-110300000D01*
X115000000Y-110300000D02*
X115000000Y-110400000D01*
X115000000Y-110400000D02*
X115000000Y-110500000D01*
X115000000Y-110500000D02*
X115000000Y-110600000D01*
X115000000Y-110600000D02*
X115000000Y-110700000D01*
X115000000Y-110700000D02*
X115000000Y-110800000D01*
X115000000Y-110800000D02*
X115000000Y-110900000D01*
X115000000Y-110900000D02*
X115000000Y-111000000D01*
X115000000Y-111000000D02*
X115000000Y-111100000D01*
X115000000Y-111100000D02*
X115000000Y-111200000D01*
X115000000Y-111200000D02*
X115000000Y-111300000D01*
X115000000Y-111300000D02*
X115000000Y-111400000D01*
X115000000Y-111400000D02*
X115000000Y-111500000D01*
X115000000Y-111500000D02*
X115000000Y-111600000D01*
X115000000Y-111600000D02*
X115000000Y-111700000D01*
X115000000Y-111700000D02*
X115000000Y-111800000D01*
X115000000Y-111800000D02*
X115000000Y-111900000D01*
X115000000Y-111900000D02*
X115000000Y-112000000D01*
X115000000Y-112000000D02*
X115000000Y-112100000D01*
X115000000Y-112100000D02*
X115000000Y-112200000D01*
X115000000Y-112200000D02*
X115000000Y-112300000D01*
X115000000Y-112300000D02*
X115000000Y-112400000D01*
X115000000Y-112400000D02*
X115000000Y-112500000D01*
X115000000Y-112500000D02*
X115000000Y-112600000D01*
X115000000Y-112600000D02*
X115000000Y-112700000D01*
X115000000Y-112700000D02*
X115000000Y-112800000D01*
X115000000Y-112800000D02*
X115000000Y-112900000D01*
X115000000Y-112900000D02*
X115000000Y-113000000D01*
X115000000Y-113000000D02*
X115000000Y-113100000D01*
X115000000Y-113100000D02*
X115000000Y-113200000D01*
X115000000Y-113200000D02*
X115000000Y-113300000D01*
X115000000Y-113300000D02*
X115000000Y-113400000D01*
X115000000Y-113400000D02*
X115000000Y-113500000D01*
X115000000Y-113500000D02*
X115000000Y-113600000D01*
X115000000Y-113600000D02*
X115000000Y-113700000D01*
X115000000Y-113700000D02*
X115000000Y-113800000D01*
X115000000Y-113800000D02*
X115000000Y-113900000D01*
X115000000Y-113900000D02*
X115000000Y-114000000D01*
X115000000Y-114000000D02*
X115000000Y-114100000D01*
X115000000Y-114100000D02*
X115000000Y-114200000D01*
X115000000Y-114200000D02*
X115000000Y-114300000D01*
X115000000Y-114300000D02*
X115000000Y-114400000D01*
X115000000Y-114400000D02*
X115000000Y-114500000D01*
X115000000Y-114500000D02*
X115000000Y-114600000D01*
X115000000Y-114600000D02*
X115000000Y-114700000D01*
X115000000Y-114700000D02*
X115000000Y-114800000D01*
X115000000Y-114800000D02*
X115000000Y-114900000D01*
X115000000Y-114900000D02*
X115000000Y-115000000D01*
X115000000Y-115000000D02*
X115000000Y-115100000D01*
X115000000Y-115100000D02*
X115000000Y-115200000D01*
X115000000Y-115200000D02*
X115000000Y-115300000D01*
X115000000Y-115300000D02*
X115000000Y-115400000D01*
X115000000Y-115400000D02*
X115000000Y-115500000D01*
X115000000Y-115500000D02*
X115000000Y-115600000D01*
X115000000Y-115600000D02*
X115000000Y-115700000D01*
X115000000Y-115700000D02*
X115000000Y-115800000D01*
X115000000Y-115800000D02*
X115000000Y-115900000D01*
X115000000Y-115900000D02*
X115000000Y-116000000D01*
X115000000Y-116000000D02*
X115000000Y-116100000D01*
X115000000Y-116100000D02*
X115000000Y-116200000D01*
X115000000Y-116200000D02*
X115000000Y-116300000D01*
X115000000Y-116300000D02*
X115000000Y-116400000D01*
X115000000Y-116400000D02*
X115000000Y-116500000D01*
X115000000Y-116500000D02*
X115000000Y-116600000D01*
X115000000Y-116600000D02*
X115000000Y-116700000D01*
X115000000Y-116700000D02*
X115000000Y-116800000D01*
X115000000Y-116800000D02*
X115000000Y-116900000D01*
X115000000Y-116900000D02*
X115000000Y-117000000D01*
X115000000Y-117000000D02*
X115000000Y-117100000D01*
X115000000Y-117100000D02*
X115000000Y-117200000D01*
X115000000Y-117200000D02*
X115000000Y-117300000D01*
X115000000Y-117300000D02*
X115000000Y-117400000D01*
X115000000Y-117400000D02*
X115000000Y-117500000D01*
X115000000Y-117500000D02*
X115000000Y-117600000D01*
X115000000Y-117600000D02*
X115000000Y-117700000D01*
X115000000Y-117700000D02*
X115000000Y-117800000D01*
X115000000Y-117800000D02*
X115000000Y-117900000D01*
X115000000Y-117900000D02*
X115000000Y-118000000D01*
%TD*%
M02*
