%TF.GenerationSoftware,KiCad,Pcbnew,9.0.7*%
%TF.CreationDate,2026-01-08T12:12:57-08:00*%
%TF.ProjectId,voltage_divider_routed,766f6c74-6167-4655-9f64-697669646572,rev?*%
%TF.SameCoordinates,Original*%
%TF.FileFunction,AssemblyDrawing,Top*%
%FSLAX46Y46*%
G04 Gerber Fmt 4.6, Leading zero omitted, Abs format (unit mm)*
G04 Created by KiCad (PCBNEW 9.0.7) date 2026-01-08 12:12:57*
%MOMM*%
%LPD*%
G01*
G04 APERTURE LIST*
%ADD10C,0.150000*%
G04 APERTURE END LIST*
D10*
X101261904Y-116859580D02*
X101214285Y-116907200D01*
X101214285Y-116907200D02*
X101071428Y-116954819D01*
X101071428Y-116954819D02*
X100976190Y-116954819D01*
X100976190Y-116954819D02*
X100833333Y-116907200D01*
X100833333Y-116907200D02*
X100738095Y-116811961D01*
X100738095Y-116811961D02*
X100690476Y-116716723D01*
X100690476Y-116716723D02*
X100642857Y-116526247D01*
X100642857Y-116526247D02*
X100642857Y-116383390D01*
X100642857Y-116383390D02*
X100690476Y-116192914D01*
X100690476Y-116192914D02*
X100738095Y-116097676D01*
X100738095Y-116097676D02*
X100833333Y-116002438D01*
X100833333Y-116002438D02*
X100976190Y-115954819D01*
X100976190Y-115954819D02*
X101071428Y-115954819D01*
X101071428Y-115954819D02*
X101214285Y-116002438D01*
X101214285Y-116002438D02*
X101261904Y-116050057D01*
X101833333Y-116954819D02*
X101738095Y-116907200D01*
X101738095Y-116907200D02*
X101690476Y-116859580D01*
X101690476Y-116859580D02*
X101642857Y-116764342D01*
X101642857Y-116764342D02*
X101642857Y-116478628D01*
X101642857Y-116478628D02*
X101690476Y-116383390D01*
X101690476Y-116383390D02*
X101738095Y-116335771D01*
X101738095Y-116335771D02*
X101833333Y-116288152D01*
X101833333Y-116288152D02*
X101976190Y-116288152D01*
X101976190Y-116288152D02*
X102071428Y-116335771D01*
X102071428Y-116335771D02*
X102119047Y-116383390D01*
X102119047Y-116383390D02*
X102166666Y-116478628D01*
X102166666Y-116478628D02*
X102166666Y-116764342D01*
X102166666Y-116764342D02*
X102119047Y-116859580D01*
X102119047Y-116859580D02*
X102071428Y-116907200D01*
X102071428Y-116907200D02*
X101976190Y-116954819D01*
X101976190Y-116954819D02*
X101833333Y-116954819D01*
X102595238Y-116288152D02*
X102595238Y-116954819D01*
X102595238Y-116383390D02*
X102642857Y-116335771D01*
X102642857Y-116335771D02*
X102738095Y-116288152D01*
X102738095Y-116288152D02*
X102880952Y-116288152D01*
X102880952Y-116288152D02*
X102976190Y-116335771D01*
X102976190Y-116335771D02*
X103023809Y-116431009D01*
X103023809Y-116431009D02*
X103023809Y-116954819D01*
X103500000Y-116288152D02*
X103500000Y-116954819D01*
X103500000Y-116383390D02*
X103547619Y-116335771D01*
X103547619Y-116335771D02*
X103642857Y-116288152D01*
X103642857Y-116288152D02*
X103785714Y-116288152D01*
X103785714Y-116288152D02*
X103880952Y-116335771D01*
X103880952Y-116335771D02*
X103928571Y-116431009D01*
X103928571Y-116431009D02*
X103928571Y-116954819D01*
X104166667Y-117050057D02*
X104928571Y-117050057D01*
X105357143Y-115954819D02*
X105452381Y-115954819D01*
X105452381Y-115954819D02*
X105547619Y-116002438D01*
X105547619Y-116002438D02*
X105595238Y-116050057D01*
X105595238Y-116050057D02*
X105642857Y-116145295D01*
X105642857Y-116145295D02*
X105690476Y-116335771D01*
X105690476Y-116335771D02*
X105690476Y-116573866D01*
X105690476Y-116573866D02*
X105642857Y-116764342D01*
X105642857Y-116764342D02*
X105595238Y-116859580D01*
X105595238Y-116859580D02*
X105547619Y-116907200D01*
X105547619Y-116907200D02*
X105452381Y-116954819D01*
X105452381Y-116954819D02*
X105357143Y-116954819D01*
X105357143Y-116954819D02*
X105261905Y-116907200D01*
X105261905Y-116907200D02*
X105214286Y-116859580D01*
X105214286Y-116859580D02*
X105166667Y-116764342D01*
X105166667Y-116764342D02*
X105119048Y-116573866D01*
X105119048Y-116573866D02*
X105119048Y-116335771D01*
X105119048Y-116335771D02*
X105166667Y-116145295D01*
X105166667Y-116145295D02*
X105214286Y-116050057D01*
X105214286Y-116050057D02*
X105261905Y-116002438D01*
X105261905Y-116002438D02*
X105357143Y-115954819D01*
X106642857Y-116954819D02*
X106071429Y-116954819D01*
X106357143Y-116954819D02*
X106357143Y-115954819D01*
X106357143Y-115954819D02*
X106261905Y-116097676D01*
X106261905Y-116097676D02*
X106166667Y-116192914D01*
X106166667Y-116192914D02*
X106071429Y-116240533D01*
X106976191Y-116954819D02*
X107500000Y-116288152D01*
X106976191Y-116288152D02*
X107500000Y-116954819D01*
X108071429Y-115954819D02*
X108166667Y-115954819D01*
X108166667Y-115954819D02*
X108261905Y-116002438D01*
X108261905Y-116002438D02*
X108309524Y-116050057D01*
X108309524Y-116050057D02*
X108357143Y-116145295D01*
X108357143Y-116145295D02*
X108404762Y-116335771D01*
X108404762Y-116335771D02*
X108404762Y-116573866D01*
X108404762Y-116573866D02*
X108357143Y-116764342D01*
X108357143Y-116764342D02*
X108309524Y-116859580D01*
X108309524Y-116859580D02*
X108261905Y-116907200D01*
X108261905Y-116907200D02*
X108166667Y-116954819D01*
X108166667Y-116954819D02*
X108071429Y-116954819D01*
X108071429Y-116954819D02*
X107976191Y-116907200D01*
X107976191Y-116907200D02*
X107928572Y-116859580D01*
X107928572Y-116859580D02*
X107880953Y-116764342D01*
X107880953Y-116764342D02*
X107833334Y-116573866D01*
X107833334Y-116573866D02*
X107833334Y-116335771D01*
X107833334Y-116335771D02*
X107880953Y-116145295D01*
X107880953Y-116145295D02*
X107928572Y-116050057D01*
X107928572Y-116050057D02*
X107976191Y-116002438D01*
X107976191Y-116002438D02*
X108071429Y-115954819D01*
X108785715Y-116050057D02*
X108833334Y-116002438D01*
X108833334Y-116002438D02*
X108928572Y-115954819D01*
X108928572Y-115954819D02*
X109166667Y-115954819D01*
X109166667Y-115954819D02*
X109261905Y-116002438D01*
X109261905Y-116002438D02*
X109309524Y-116050057D01*
X109309524Y-116050057D02*
X109357143Y-116145295D01*
X109357143Y-116145295D02*
X109357143Y-116240533D01*
X109357143Y-116240533D02*
X109309524Y-116383390D01*
X109309524Y-116383390D02*
X108738096Y-116954819D01*
X108738096Y-116954819D02*
X109357143Y-116954819D01*
X115904761Y-108454819D02*
X115333333Y-108454819D01*
X115619047Y-108454819D02*
X115619047Y-107454819D01*
X115619047Y-107454819D02*
X115523809Y-107597676D01*
X115523809Y-107597676D02*
X115428571Y-107692914D01*
X115428571Y-107692914D02*
X115333333Y-107740533D01*
X116523809Y-107454819D02*
X116619047Y-107454819D01*
X116619047Y-107454819D02*
X116714285Y-107502438D01*
X116714285Y-107502438D02*
X116761904Y-107550057D01*
X116761904Y-107550057D02*
X116809523Y-107645295D01*
X116809523Y-107645295D02*
X116857142Y-107835771D01*
X116857142Y-107835771D02*
X116857142Y-108073866D01*
X116857142Y-108073866D02*
X116809523Y-108264342D01*
X116809523Y-108264342D02*
X116761904Y-108359580D01*
X116761904Y-108359580D02*
X116714285Y-108407200D01*
X116714285Y-108407200D02*
X116619047Y-108454819D01*
X116619047Y-108454819D02*
X116523809Y-108454819D01*
X116523809Y-108454819D02*
X116428571Y-108407200D01*
X116428571Y-108407200D02*
X116380952Y-108359580D01*
X116380952Y-108359580D02*
X116333333Y-108264342D01*
X116333333Y-108264342D02*
X116285714Y-108073866D01*
X116285714Y-108073866D02*
X116285714Y-107835771D01*
X116285714Y-107835771D02*
X116333333Y-107645295D01*
X116333333Y-107645295D02*
X116380952Y-107550057D01*
X116380952Y-107550057D02*
X116428571Y-107502438D01*
X116428571Y-107502438D02*
X116523809Y-107454819D01*
X117285714Y-108454819D02*
X117285714Y-107454819D01*
X117380952Y-108073866D02*
X117666666Y-108454819D01*
X117666666Y-107788152D02*
X117285714Y-108169104D01*
X115904761Y-117454819D02*
X115333333Y-117454819D01*
X115619047Y-117454819D02*
X115619047Y-116454819D01*
X115619047Y-116454819D02*
X115523809Y-116597676D01*
X115523809Y-116597676D02*
X115428571Y-116692914D01*
X115428571Y-116692914D02*
X115333333Y-116740533D01*
X116523809Y-116454819D02*
X116619047Y-116454819D01*
X116619047Y-116454819D02*
X116714285Y-116502438D01*
X116714285Y-116502438D02*
X116761904Y-116550057D01*
X116761904Y-116550057D02*
X116809523Y-116645295D01*
X116809523Y-116645295D02*
X116857142Y-116835771D01*
X116857142Y-116835771D02*
X116857142Y-117073866D01*
X116857142Y-117073866D02*
X116809523Y-117264342D01*
X116809523Y-117264342D02*
X116761904Y-117359580D01*
X116761904Y-117359580D02*
X116714285Y-117407200D01*
X116714285Y-117407200D02*
X116619047Y-117454819D01*
X116619047Y-117454819D02*
X116523809Y-117454819D01*
X116523809Y-117454819D02*
X116428571Y-117407200D01*
X116428571Y-117407200D02*
X116380952Y-117359580D01*
X116380952Y-117359580D02*
X116333333Y-117264342D01*
X116333333Y-117264342D02*
X116285714Y-117073866D01*
X116285714Y-117073866D02*
X116285714Y-116835771D01*
X116285714Y-116835771D02*
X116333333Y-116645295D01*
X116333333Y-116645295D02*
X116380952Y-116550057D01*
X116380952Y-116550057D02*
X116428571Y-116502438D01*
X116428571Y-116502438D02*
X116523809Y-116454819D01*
X117285714Y-117454819D02*
X117285714Y-116454819D01*
X117380952Y-117073866D02*
X117666666Y-117454819D01*
X117666666Y-116788152D02*
X117285714Y-117169104D01*
X121261904Y-116859580D02*
X121214285Y-116907200D01*
X121214285Y-116907200D02*
X121071428Y-116954819D01*
X121071428Y-116954819D02*
X120976190Y-116954819D01*
X120976190Y-116954819D02*
X120833333Y-116907200D01*
X120833333Y-116907200D02*
X120738095Y-116811961D01*
X120738095Y-116811961D02*
X120690476Y-116716723D01*
X120690476Y-116716723D02*
X120642857Y-116526247D01*
X120642857Y-116526247D02*
X120642857Y-116383390D01*
X120642857Y-116383390D02*
X120690476Y-116192914D01*
X120690476Y-116192914D02*
X120738095Y-116097676D01*
X120738095Y-116097676D02*
X120833333Y-116002438D01*
X120833333Y-116002438D02*
X120976190Y-115954819D01*
X120976190Y-115954819D02*
X121071428Y-115954819D01*
X121071428Y-115954819D02*
X121214285Y-116002438D01*
X121214285Y-116002438D02*
X121261904Y-116050057D01*
X121833333Y-116954819D02*
X121738095Y-116907200D01*
X121738095Y-116907200D02*
X121690476Y-116859580D01*
X121690476Y-116859580D02*
X121642857Y-116764342D01*
X121642857Y-116764342D02*
X121642857Y-116478628D01*
X121642857Y-116478628D02*
X121690476Y-116383390D01*
X121690476Y-116383390D02*
X121738095Y-116335771D01*
X121738095Y-116335771D02*
X121833333Y-116288152D01*
X121833333Y-116288152D02*
X121976190Y-116288152D01*
X121976190Y-116288152D02*
X122071428Y-116335771D01*
X122071428Y-116335771D02*
X122119047Y-116383390D01*
X122119047Y-116383390D02*
X122166666Y-116478628D01*
X122166666Y-116478628D02*
X122166666Y-116764342D01*
X122166666Y-116764342D02*
X122119047Y-116859580D01*
X122119047Y-116859580D02*
X122071428Y-116907200D01*
X122071428Y-116907200D02*
X121976190Y-116954819D01*
X121976190Y-116954819D02*
X121833333Y-116954819D01*
X122595238Y-116288152D02*
X122595238Y-116954819D01*
X122595238Y-116383390D02*
X122642857Y-116335771D01*
X122642857Y-116335771D02*
X122738095Y-116288152D01*
X122738095Y-116288152D02*
X122880952Y-116288152D01*
X122880952Y-116288152D02*
X122976190Y-116335771D01*
X122976190Y-116335771D02*
X123023809Y-116431009D01*
X123023809Y-116431009D02*
X123023809Y-116954819D01*
X123500000Y-116288152D02*
X123500000Y-116954819D01*
X123500000Y-116383390D02*
X123547619Y-116335771D01*
X123547619Y-116335771D02*
X123642857Y-116288152D01*
X123642857Y-116288152D02*
X123785714Y-116288152D01*
X123785714Y-116288152D02*
X123880952Y-116335771D01*
X123880952Y-116335771D02*
X123928571Y-116431009D01*
X123928571Y-116431009D02*
X123928571Y-116954819D01*
X124166667Y-117050057D02*
X124928571Y-117050057D01*
X125357143Y-115954819D02*
X125452381Y-115954819D01*
X125452381Y-115954819D02*
X125547619Y-116002438D01*
X125547619Y-116002438D02*
X125595238Y-116050057D01*
X125595238Y-116050057D02*
X125642857Y-116145295D01*
X125642857Y-116145295D02*
X125690476Y-116335771D01*
X125690476Y-116335771D02*
X125690476Y-116573866D01*
X125690476Y-116573866D02*
X125642857Y-116764342D01*
X125642857Y-116764342D02*
X125595238Y-116859580D01*
X125595238Y-116859580D02*
X125547619Y-116907200D01*
X125547619Y-116907200D02*
X125452381Y-116954819D01*
X125452381Y-116954819D02*
X125357143Y-116954819D01*
X125357143Y-116954819D02*
X125261905Y-116907200D01*
X125261905Y-116907200D02*
X125214286Y-116859580D01*
X125214286Y-116859580D02*
X125166667Y-116764342D01*
X125166667Y-116764342D02*
X125119048Y-116573866D01*
X125119048Y-116573866D02*
X125119048Y-116335771D01*
X125119048Y-116335771D02*
X125166667Y-116145295D01*
X125166667Y-116145295D02*
X125214286Y-116050057D01*
X125214286Y-116050057D02*
X125261905Y-116002438D01*
X125261905Y-116002438D02*
X125357143Y-115954819D01*
X126642857Y-116954819D02*
X126071429Y-116954819D01*
X126357143Y-116954819D02*
X126357143Y-115954819D01*
X126357143Y-115954819D02*
X126261905Y-116097676D01*
X126261905Y-116097676D02*
X126166667Y-116192914D01*
X126166667Y-116192914D02*
X126071429Y-116240533D01*
X126976191Y-116954819D02*
X127500000Y-116288152D01*
X126976191Y-116288152D02*
X127500000Y-116954819D01*
X128071429Y-115954819D02*
X128166667Y-115954819D01*
X128166667Y-115954819D02*
X128261905Y-116002438D01*
X128261905Y-116002438D02*
X128309524Y-116050057D01*
X128309524Y-116050057D02*
X128357143Y-116145295D01*
X128357143Y-116145295D02*
X128404762Y-116335771D01*
X128404762Y-116335771D02*
X128404762Y-116573866D01*
X128404762Y-116573866D02*
X128357143Y-116764342D01*
X128357143Y-116764342D02*
X128309524Y-116859580D01*
X128309524Y-116859580D02*
X128261905Y-116907200D01*
X128261905Y-116907200D02*
X128166667Y-116954819D01*
X128166667Y-116954819D02*
X128071429Y-116954819D01*
X128071429Y-116954819D02*
X127976191Y-116907200D01*
X127976191Y-116907200D02*
X127928572Y-116859580D01*
X127928572Y-116859580D02*
X127880953Y-116764342D01*
X127880953Y-116764342D02*
X127833334Y-116573866D01*
X127833334Y-116573866D02*
X127833334Y-116335771D01*
X127833334Y-116335771D02*
X127880953Y-116145295D01*
X127880953Y-116145295D02*
X127928572Y-116050057D01*
X127928572Y-116050057D02*
X127976191Y-116002438D01*
X127976191Y-116002438D02*
X128071429Y-115954819D01*
X128785715Y-116050057D02*
X128833334Y-116002438D01*
X128833334Y-116002438D02*
X128928572Y-115954819D01*
X128928572Y-115954819D02*
X129166667Y-115954819D01*
X129166667Y-115954819D02*
X129261905Y-116002438D01*
X129261905Y-116002438D02*
X129309524Y-116050057D01*
X129309524Y-116050057D02*
X129357143Y-116145295D01*
X129357143Y-116145295D02*
X129357143Y-116240533D01*
X129357143Y-116240533D02*
X129309524Y-116383390D01*
X129309524Y-116383390D02*
X128738096Y-116954819D01*
X128738096Y-116954819D02*
X129357143Y-116954819D01*
M02*
