<?xml version="1.0" standalone="no"?>
 <!DOCTYPE svg PUBLIC "-//W3C//DTD SVG 1.1//EN"
 "http://www.w3.org/Graphics/SVG/1.1/DTD/svg11.dtd">
<svg
  xmlns:svg="http://www.w3.org/2000/svg"
  xmlns="http://www.w3.org/2000/svg"
  xmlns:xlink="http://www.w3.org/1999/xlink"
  xmlns:inkscape="http://www.inkscape.org/namespaces/inkscape"
  version="1.1"
  width="89.9922mm" height="69.9770mm" viewBox="0.0000 0.0000 89.9922 69.9770">
<title>SVG Image created as pcb-back.svg date 2026-09-10T11:39:29 </title>
  <desc>Image generated by PCBNEW </desc>
<g style="fill:#000000; fill-opacity:1.0000;stroke:#000000; stroke-opacity:1.0000;
stroke-linecap:round; stroke-linejoin:round;"
 transform="translate(0 0) scale(1 1)">
</g>
<g style="fill:none;
stroke:#C872AB; stroke-width:0.1500; stroke-opacity:1;
stroke-linecap:round; stroke-linejoin:round;">
<path d="M-35.0000 21.0000
L73.0000 21.0000
L73.0000 53.0000
L-35.0000 53.0000
L-35.0000 21.0000
" />
<path d="M5.0000 5.0000
L75.0000 5.0000
L75.0000 55.0000
L5.0000 55.0000
L5.0000 5.0000
" />
<path d="M7.0000 7.0000
L73.0000 7.0000
L73.0000 53.0000
L7.0000 53.0000
L7.0000 7.0000
" />
<path d="M55.0000 7.0000
L55.0000 5.0000
" />
<text x="30.0000" y="6.6500"
textLength="1.4281" font-size="1.7333" lengthAdjust="spacingAndGlyphs"
text-anchor="start" opacity="0" stroke-opacity="0">1</text>
<g class="stroked-text"><desc>1</desc>
<path d="M31.0892 6.5936
L30.3463 6.5936
" />
<path d="M30.7177 6.5936
L30.7177 5.2936
" />
<path d="M30.7177 5.2936
L30.5939 5.4793
" />
<path d="M30.5939 5.4793
L30.4701 5.6031
" />
<path d="M30.4701 5.6031
L30.3463 5.6650
" />
</g><path d="M55.0000 53.0000
L55.0000 55.0000
" />
<text x="30.0000" y="54.6500"
textLength="1.4281" font-size="1.7333" lengthAdjust="spacingAndGlyphs"
text-anchor="start" opacity="0" stroke-opacity="0">1</text>
<g class="stroked-text"><desc>1</desc>
<path d="M31.0892 54.5936
L30.3463 54.5936
" />
<path d="M30.7177 54.5936
L30.7177 53.2936
" />
<path d="M30.7177 53.2936
L30.5939 53.4793
" />
<path d="M30.5939 53.4793
L30.4701 53.6031
" />
<path d="M30.4701 53.6031
L30.3463 53.6650
" />
</g><path d="M5.0000 55.0000
L7.0000 55.0000
" />
<text x="6.0000" y="30.6500"
textLength="1.3043" font-size="1.7333" lengthAdjust="spacingAndGlyphs"
text-anchor="middle" opacity="0" stroke-opacity="0">A</text>
<g class="stroked-text"><desc>A</desc>
<path d="M5.6905 30.2222
L6.3095 30.2222
" />
<path d="M5.5667 30.5936
L6.0000 29.2936
" />
<path d="M6.0000 29.2936
L6.4333 30.5936
" />
</g><path d="M75.0000 55.0000
L73.0000 55.0000
" />
<text x="74.0000" y="30.6500"
textLength="1.3043" font-size="1.7333" lengthAdjust="spacingAndGlyphs"
text-anchor="middle" opacity="0" stroke-opacity="0">A</text>
<g class="stroked-text"><desc>A</desc>
<path d="M73.6905 30.2222
L74.3095 30.2222
" />
<path d="M73.5667 30.5936
L74.0000 29.2936
" />
<path d="M74.0000 29.2936
L74.4333 30.5936
" />
</g><text x="-12.0000" y="48.8500"
textLength="7.0071" font-size="2.0000" lengthAdjust="spacingAndGlyphs"
text-anchor="start" opacity="0" stroke-opacity="0">Date: </text>
<g class="stroked-text"><desc>Date: </desc>
<path d="M-11.5442 48.7861
L-11.5442 47.2861
" />
<path d="M-11.5442 47.2861
L-11.1870 47.2861
" />
<path d="M-11.1870 47.2861
L-10.9727 47.3576
" />
<path d="M-10.9727 47.3576
L-10.8299 47.5004
" />
<path d="M-10.8299 47.5004
L-10.7585 47.6433
" />
<path d="M-10.7585 47.6433
L-10.6870 47.9290
" />
<path d="M-10.6870 47.9290
L-10.6870 48.1433
" />
<path d="M-10.6870 48.1433
L-10.7585 48.4290
" />
<path d="M-10.7585 48.4290
L-10.8299 48.5718
" />
<path d="M-10.8299 48.5718
L-10.9727 48.7147
" />
<path d="M-10.9727 48.7147
L-11.1870 48.7861
" />
<path d="M-11.1870 48.7861
L-11.5442 48.7861
" />
<path d="M-9.4013 48.7861
L-9.4013 48.0004
" />
<path d="M-9.4013 48.0004
L-9.4727 47.8576
" />
<path d="M-9.4727 47.8576
L-9.6156 47.7861
" />
<path d="M-9.6156 47.7861
L-9.9013 47.7861
" />
<path d="M-9.9013 47.7861
L-10.0442 47.8576
" />
<path d="M-9.4013 48.7147
L-9.5442 48.7861
" />
<path d="M-9.5442 48.7861
L-9.9013 48.7861
" />
<path d="M-9.9013 48.7861
L-10.0442 48.7147
" />
<path d="M-10.0442 48.7147
L-10.1156 48.5718
" />
<path d="M-10.1156 48.5718
L-10.1156 48.4290
" />
<path d="M-10.1156 48.4290
L-10.0442 48.2861
" />
<path d="M-10.0442 48.2861
L-9.9013 48.2147
" />
<path d="M-9.9013 48.2147
L-9.5442 48.2147
" />
<path d="M-9.5442 48.2147
L-9.4013 48.1433
" />
<path d="M-8.9013 47.7861
L-8.3299 47.7861
" />
<path d="M-8.6870 47.2861
L-8.6870 48.5718
" />
<path d="M-8.6870 48.5718
L-8.6156 48.7147
" />
<path d="M-8.6156 48.7147
L-8.4727 48.7861
" />
<path d="M-8.4727 48.7861
L-8.3299 48.7861
" />
<path d="M-7.2585 48.7147
L-7.4013 48.7861
" />
<path d="M-7.4013 48.7861
L-7.6870 48.7861
" />
<path d="M-7.6870 48.7861
L-7.8299 48.7147
" />
<path d="M-7.8299 48.7147
L-7.9013 48.5718
" />
<path d="M-7.9013 48.5718
L-7.9013 48.0004
" />
<path d="M-7.9013 48.0004
L-7.8299 47.8576
" />
<path d="M-7.8299 47.8576
L-7.6870 47.7861
" />
<path d="M-7.6870 47.7861
L-7.4013 47.7861
" />
<path d="M-7.4013 47.7861
L-7.2585 47.8576
" />
<path d="M-7.2585 47.8576
L-7.1870 48.0004
" />
<path d="M-7.1870 48.0004
L-7.1870 48.1433
" />
<path d="M-7.1870 48.1433
L-7.9013 48.2861
" />
<path d="M-6.5442 48.6433
L-6.4727 48.7147
" />
<path d="M-6.4727 48.7147
L-6.5442 48.7861
" />
<path d="M-6.5442 48.7861
L-6.6156 48.7147
" />
<path d="M-6.6156 48.7147
L-6.5442 48.6433
" />
<path d="M-6.5442 48.6433
L-6.5442 48.7861
" />
<path d="M-6.5442 47.8576
L-6.4727 47.9290
" />
<path d="M-6.4727 47.9290
L-6.5442 48.0004
" />
<path d="M-6.5442 48.0004
L-6.6156 47.9290
" />
<path d="M-6.6156 47.9290
L-6.5442 47.8576
" />
<path d="M-6.5442 47.8576
L-6.5442 48.0004
" />
</g><path d="M-35.0000 49.5000
L73.0000 49.5000
" />
<text x="-34.0000" y="51.6500"
textLength="22.2929" font-size="2.0000" lengthAdjust="spacingAndGlyphs"
text-anchor="start" opacity="0" stroke-opacity="0">KiCad E.D.A. 10.0.6</text>
<g class="stroked-text"><desc>KiCad E.D.A. 10.0.6</desc>
<path d="M-33.5442 51.5861
L-33.5442 50.0861
" />
<path d="M-32.6870 51.5861
L-33.3299 50.7290
" />
<path d="M-32.6870 50.0861
L-33.5442 50.9433
" />
<path d="M-32.0442 51.5861
L-32.0442 50.5861
" />
<path d="M-32.0442 50.0861
L-32.1156 50.1576
" />
<path d="M-32.1156 50.1576
L-32.0442 50.2290
" />
<path d="M-32.0442 50.2290
L-31.9727 50.1576
" />
<path d="M-31.9727 50.1576
L-32.0442 50.0861
" />
<path d="M-32.0442 50.0861
L-32.0442 50.2290
" />
<path d="M-30.4727 51.4433
L-30.5442 51.5147
" />
<path d="M-30.5442 51.5147
L-30.7585 51.5861
" />
<path d="M-30.7585 51.5861
L-30.9013 51.5861
" />
<path d="M-30.9013 51.5861
L-31.1156 51.5147
" />
<path d="M-31.1156 51.5147
L-31.2585 51.3718
" />
<path d="M-31.2585 51.3718
L-31.3299 51.2290
" />
<path d="M-31.3299 51.2290
L-31.4013 50.9433
" />
<path d="M-31.4013 50.9433
L-31.4013 50.7290
" />
<path d="M-31.4013 50.7290
L-31.3299 50.4433
" />
<path d="M-31.3299 50.4433
L-31.2585 50.3004
" />
<path d="M-31.2585 50.3004
L-31.1156 50.1576
" />
<path d="M-31.1156 50.1576
L-30.9013 50.0861
" />
<path d="M-30.9013 50.0861
L-30.7585 50.0861
" />
<path d="M-30.7585 50.0861
L-30.5442 50.1576
" />
<path d="M-30.5442 50.1576
L-30.4727 50.2290
" />
<path d="M-29.1870 51.5861
L-29.1870 50.8004
" />
<path d="M-29.1870 50.8004
L-29.2585 50.6576
" />
<path d="M-29.2585 50.6576
L-29.4013 50.5861
" />
<path d="M-29.4013 50.5861
L-29.6870 50.5861
" />
<path d="M-29.6870 50.5861
L-29.8299 50.6576
" />
<path d="M-29.1870 51.5147
L-29.3299 51.5861
" />
<path d="M-29.3299 51.5861
L-29.6870 51.5861
" />
<path d="M-29.6870 51.5861
L-29.8299 51.5147
" />
<path d="M-29.8299 51.5147
L-29.9013 51.3718
" />
<path d="M-29.9013 51.3718
L-29.9013 51.2290
" />
<path d="M-29.9013 51.2290
L-29.8299 51.0861
" />
<path d="M-29.8299 51.0861
L-29.6870 51.0147
" />
<path d="M-29.6870 51.0147
L-29.3299 51.0147
" />
<path d="M-29.3299 51.0147
L-29.1870 50.9433
" />
<path d="M-27.8299 51.5861
L-27.8299 50.0861
" />
<path d="M-27.8299 51.5147
L-27.9727 51.5861
" />
<path d="M-27.9727 51.5861
L-28.2585 51.5861
" />
<path d="M-28.2585 51.5861
L-28.4013 51.5147
" />
<path d="M-28.4013 51.5147
L-28.4727 51.4433
" />
<path d="M-28.4727 51.4433
L-28.5442 51.3004
" />
<path d="M-28.5442 51.3004
L-28.5442 50.8718
" />
<path d="M-28.5442 50.8718
L-28.4727 50.7290
" />
<path d="M-28.4727 50.7290
L-28.4013 50.6576
" />
<path d="M-28.4013 50.6576
L-28.2585 50.5861
" />
<path d="M-28.2585 50.5861
L-27.9727 50.5861
" />
<path d="M-27.9727 50.5861
L-27.8299 50.6576
" />
<path d="M-25.9727 50.8004
L-25.4727 50.8004
" />
<path d="M-25.2585 51.5861
L-25.9727 51.5861
" />
<path d="M-25.9727 51.5861
L-25.9727 50.0861
" />
<path d="M-25.9727 50.0861
L-25.2585 50.0861
" />
<path d="M-24.6156 51.4433
L-24.5442 51.5147
" />
<path d="M-24.5442 51.5147
L-24.6156 51.5861
" />
<path d="M-24.6156 51.5861
L-24.6870 51.5147
" />
<path d="M-24.6870 51.5147
L-24.6156 51.4433
" />
<path d="M-24.6156 51.4433
L-24.6156 51.5861
" />
<path d="M-23.9013 51.5861
L-23.9013 50.0861
" />
<path d="M-23.9013 50.0861
L-23.5442 50.0861
" />
<path d="M-23.5442 50.0861
L-23.3299 50.1576
" />
<path d="M-23.3299 50.1576
L-23.1870 50.3004
" />
<path d="M-23.1870 50.3004
L-23.1156 50.4433
" />
<path d="M-23.1156 50.4433
L-23.0442 50.7290
" />
<path d="M-23.0442 50.7290
L-23.0442 50.9433
" />
<path d="M-23.0442 50.9433
L-23.1156 51.2290
" />
<path d="M-23.1156 51.2290
L-23.1870 51.3718
" />
<path d="M-23.1870 51.3718
L-23.3299 51.5147
" />
<path d="M-23.3299 51.5147
L-23.5442 51.5861
" />
<path d="M-23.5442 51.5861
L-23.9013 51.5861
" />
<path d="M-22.4013 51.4433
L-22.3299 51.5147
" />
<path d="M-22.3299 51.5147
L-22.4013 51.5861
" />
<path d="M-22.4013 51.5861
L-22.4727 51.5147
" />
<path d="M-22.4727 51.5147
L-22.4013 51.4433
" />
<path d="M-22.4013 51.4433
L-22.4013 51.5861
" />
<path d="M-21.7585 51.1576
L-21.0442 51.1576
" />
<path d="M-21.9013 51.5861
L-21.4013 50.0861
" />
<path d="M-21.4013 50.0861
L-20.9013 51.5861
" />
<path d="M-20.4013 51.4433
L-20.3299 51.5147
" />
<path d="M-20.3299 51.5147
L-20.4013 51.5861
" />
<path d="M-20.4013 51.5861
L-20.4727 51.5147
" />
<path d="M-20.4727 51.5147
L-20.4013 51.4433
" />
<path d="M-20.4013 51.4433
L-20.4013 51.5861
" />
<path d="M-17.7585 51.5861
L-18.6156 51.5861
" />
<path d="M-18.1870 51.5861
L-18.1870 50.0861
" />
<path d="M-18.1870 50.0861
L-18.3299 50.3004
" />
<path d="M-18.3299 50.3004
L-18.4727 50.4433
" />
<path d="M-18.4727 50.4433
L-18.6156 50.5147
" />
<path d="M-16.8299 50.0861
L-16.6870 50.0861
" />
<path d="M-16.6870 50.0861
L-16.5442 50.1576
" />
<path d="M-16.5442 50.1576
L-16.4727 50.2290
" />
<path d="M-16.4727 50.2290
L-16.4013 50.3718
" />
<path d="M-16.4013 50.3718
L-16.3299 50.6576
" />
<path d="M-16.3299 50.6576
L-16.3299 51.0147
" />
<path d="M-16.3299 51.0147
L-16.4013 51.3004
" />
<path d="M-16.4013 51.3004
L-16.4727 51.4433
" />
<path d="M-16.4727 51.4433
L-16.5442 51.5147
" />
<path d="M-16.5442 51.5147
L-16.6870 51.5861
" />
<path d="M-16.6870 51.5861
L-16.8299 51.5861
" />
<path d="M-16.8299 51.5861
L-16.9727 51.5147
" />
<path d="M-16.9727 51.5147
L-17.0442 51.4433
" />
<path d="M-17.0442 51.4433
L-17.1156 51.3004
" />
<path d="M-17.1156 51.3004
L-17.1870 51.0147
" />
<path d="M-17.1870 51.0147
L-17.1870 50.6576
" />
<path d="M-17.1870 50.6576
L-17.1156 50.3718
" />
<path d="M-17.1156 50.3718
L-17.0442 50.2290
" />
<path d="M-17.0442 50.2290
L-16.9727 50.1576
" />
<path d="M-16.9727 50.1576
L-16.8299 50.0861
" />
<path d="M-15.6870 51.4433
L-15.6156 51.5147
" />
<path d="M-15.6156 51.5147
L-15.6870 51.5861
" />
<path d="M-15.6870 51.5861
L-15.7585 51.5147
" />
<path d="M-15.7585 51.5147
L-15.6870 51.4433
" />
<path d="M-15.6870 51.4433
L-15.6870 51.5861
" />
<path d="M-14.6870 50.0861
L-14.5442 50.0861
" />
<path d="M-14.5442 50.0861
L-14.4013 50.1576
" />
<path d="M-14.4013 50.1576
L-14.3299 50.2290
" />
<path d="M-14.3299 50.2290
L-14.2585 50.3718
" />
<path d="M-14.2585 50.3718
L-14.1870 50.6576
" />
<path d="M-14.1870 50.6576
L-14.1870 51.0147
" />
<path d="M-14.1870 51.0147
L-14.2585 51.3004
" />
<path d="M-14.2585 51.3004
L-14.3299 51.4433
" />
<path d="M-14.3299 51.4433
L-14.4013 51.5147
" />
<path d="M-14.4013 51.5147
L-14.5442 51.5861
" />
<path d="M-14.5442 51.5861
L-14.6870 51.5861
" />
<path d="M-14.6870 51.5861
L-14.8299 51.5147
" />
<path d="M-14.8299 51.5147
L-14.9013 51.4433
" />
<path d="M-14.9013 51.4433
L-14.9727 51.3004
" />
<path d="M-14.9727 51.3004
L-15.0442 51.0147
" />
<path d="M-15.0442 51.0147
L-15.0442 50.6576
" />
<path d="M-15.0442 50.6576
L-14.9727 50.3718
" />
<path d="M-14.9727 50.3718
L-14.9013 50.2290
" />
<path d="M-14.9013 50.2290
L-14.8299 50.1576
" />
<path d="M-14.8299 50.1576
L-14.6870 50.0861
" />
<path d="M-13.5442 51.4433
L-13.4727 51.5147
" />
<path d="M-13.4727 51.5147
L-13.5442 51.5861
" />
<path d="M-13.5442 51.5861
L-13.6156 51.5147
" />
<path d="M-13.6156 51.5147
L-13.5442 51.4433
" />
<path d="M-13.5442 51.4433
L-13.5442 51.5861
" />
<path d="M-12.1870 50.0861
L-12.4727 50.0861
" />
<path d="M-12.4727 50.0861
L-12.6156 50.1576
" />
<path d="M-12.6156 50.1576
L-12.6870 50.2290
" />
<path d="M-12.6870 50.2290
L-12.8299 50.4433
" />
<path d="M-12.8299 50.4433
L-12.9013 50.7290
" />
<path d="M-12.9013 50.7290
L-12.9013 51.3004
" />
<path d="M-12.9013 51.3004
L-12.8299 51.4433
" />
<path d="M-12.8299 51.4433
L-12.7585 51.5147
" />
<path d="M-12.7585 51.5147
L-12.6156 51.5861
" />
<path d="M-12.6156 51.5861
L-12.3299 51.5861
" />
<path d="M-12.3299 51.5861
L-12.1870 51.5147
" />
<path d="M-12.1870 51.5147
L-12.1156 51.4433
" />
<path d="M-12.1156 51.4433
L-12.0442 51.3004
" />
<path d="M-12.0442 51.3004
L-12.0442 50.9433
" />
<path d="M-12.0442 50.9433
L-12.1156 50.8004
" />
<path d="M-12.1156 50.8004
L-12.1870 50.7290
" />
<path d="M-12.1870 50.7290
L-12.3299 50.6576
" />
<path d="M-12.3299 50.6576
L-12.6156 50.6576
" />
<path d="M-12.6156 50.6576
L-12.7585 50.7290
" />
<path d="M-12.7585 50.7290
L-12.8299 50.8004
" />
<path d="M-12.8299 50.8004
L-12.9013 50.9433
" />
</g><path d="M-35.0000 46.5000
L73.0000 46.5000
" />
</g>
<g style="fill:none;
stroke:#C872AB; stroke-width:0.3000; stroke-opacity:1;
stroke-linecap:round; stroke-linejoin:round;">
<text x="51.0000" y="48.8500"
textLength="6.3857" font-size="2.0000" lengthAdjust="spacingAndGlyphs"
text-anchor="start" opacity="0" stroke-opacity="0">Rev: </text>
<g class="stroked-text"><desc>Rev: </desc>
<path d="M52.4117 48.7783
L51.9117 48.0640
" />
<path d="M51.5545 48.7783
L51.5545 47.2783
" />
<path d="M51.5545 47.2783
L52.1259 47.2783
" />
<path d="M52.1259 47.2783
L52.2688 47.3498
" />
<path d="M52.2688 47.3498
L52.3402 47.4212
" />
<path d="M52.3402 47.4212
L52.4117 47.5640
" />
<path d="M52.4117 47.5640
L52.4117 47.7783
" />
<path d="M52.4117 47.7783
L52.3402 47.9212
" />
<path d="M52.3402 47.9212
L52.2688 47.9926
" />
<path d="M52.2688 47.9926
L52.1259 48.0640
" />
<path d="M52.1259 48.0640
L51.5545 48.0640
" />
<path d="M53.6259 48.7069
L53.4831 48.7783
" />
<path d="M53.4831 48.7783
L53.1974 48.7783
" />
<path d="M53.1974 48.7783
L53.0545 48.7069
" />
<path d="M53.0545 48.7069
L52.9831 48.5640
" />
<path d="M52.9831 48.5640
L52.9831 47.9926
" />
<path d="M52.9831 47.9926
L53.0545 47.8498
" />
<path d="M53.0545 47.8498
L53.1974 47.7783
" />
<path d="M53.1974 47.7783
L53.4831 47.7783
" />
<path d="M53.4831 47.7783
L53.6259 47.8498
" />
<path d="M53.6259 47.8498
L53.6974 47.9926
" />
<path d="M53.6974 47.9926
L53.6974 48.1355
" />
<path d="M53.6974 48.1355
L52.9831 48.2783
" />
<path d="M54.1974 47.7783
L54.5545 48.7783
" />
<path d="M54.5545 48.7783
L54.9117 47.7783
" />
<path d="M55.4831 48.6355
L55.5545 48.7069
" />
<path d="M55.5545 48.7069
L55.4831 48.7783
" />
<path d="M55.4831 48.7783
L55.4117 48.7069
" />
<path d="M55.4117 48.7069
L55.4831 48.6355
" />
<path d="M55.4831 48.6355
L55.4831 48.7783
" />
<path d="M55.4831 47.8498
L55.5545 47.9212
" />
<path d="M55.5545 47.9212
L55.4831 47.9926
" />
<path d="M55.4831 47.9926
L55.4117 47.9212
" />
<path d="M55.4117 47.9212
L55.4831 47.8498
" />
<path d="M55.4831 47.8498
L55.4831 47.9926
" />
</g></g>
<g style="fill:none;
stroke:#C872AB; stroke-width:0.1500; stroke-opacity:1;
stroke-linecap:round; stroke-linejoin:round;">
<text x="-34.0000" y="48.8500"
textLength="11.6500" font-size="2.0000" lengthAdjust="spacingAndGlyphs"
text-anchor="start" opacity="0" stroke-opacity="0">Size: User</text>
<g class="stroked-text"><desc>Size: User</desc>
<path d="M-33.6156 48.7147
L-33.4013 48.7861
" />
<path d="M-33.4013 48.7861
L-33.0442 48.7861
" />
<path d="M-33.0442 48.7861
L-32.9013 48.7147
" />
<path d="M-32.9013 48.7147
L-32.8299 48.6433
" />
<path d="M-32.8299 48.6433
L-32.7585 48.5004
" />
<path d="M-32.7585 48.5004
L-32.7585 48.3576
" />
<path d="M-32.7585 48.3576
L-32.8299 48.2147
" />
<path d="M-32.8299 48.2147
L-32.9013 48.1433
" />
<path d="M-32.9013 48.1433
L-33.0442 48.0718
" />
<path d="M-33.0442 48.0718
L-33.3299 48.0004
" />
<path d="M-33.3299 48.0004
L-33.4727 47.9290
" />
<path d="M-33.4727 47.9290
L-33.5442 47.8576
" />
<path d="M-33.5442 47.8576
L-33.6156 47.7147
" />
<path d="M-33.6156 47.7147
L-33.6156 47.5718
" />
<path d="M-33.6156 47.5718
L-33.5442 47.4290
" />
<path d="M-33.5442 47.4290
L-33.4727 47.3576
" />
<path d="M-33.4727 47.3576
L-33.3299 47.2861
" />
<path d="M-33.3299 47.2861
L-32.9727 47.2861
" />
<path d="M-32.9727 47.2861
L-32.7585 47.3576
" />
<path d="M-32.1156 48.7861
L-32.1156 47.7861
" />
<path d="M-32.1156 47.2861
L-32.1870 47.3576
" />
<path d="M-32.1870 47.3576
L-32.1156 47.4290
" />
<path d="M-32.1156 47.4290
L-32.0442 47.3576
" />
<path d="M-32.0442 47.3576
L-32.1156 47.2861
" />
<path d="M-32.1156 47.2861
L-32.1156 47.4290
" />
<path d="M-31.5442 47.7861
L-30.7585 47.7861
" />
<path d="M-30.7585 47.7861
L-31.5442 48.7861
" />
<path d="M-31.5442 48.7861
L-30.7585 48.7861
" />
<path d="M-29.6156 48.7147
L-29.7585 48.7861
" />
<path d="M-29.7585 48.7861
L-30.0442 48.7861
" />
<path d="M-30.0442 48.7861
L-30.1870 48.7147
" />
<path d="M-30.1870 48.7147
L-30.2585 48.5718
" />
<path d="M-30.2585 48.5718
L-30.2585 48.0004
" />
<path d="M-30.2585 48.0004
L-30.1870 47.8576
" />
<path d="M-30.1870 47.8576
L-30.0442 47.7861
" />
<path d="M-30.0442 47.7861
L-29.7585 47.7861
" />
<path d="M-29.7585 47.7861
L-29.6156 47.8576
" />
<path d="M-29.6156 47.8576
L-29.5442 48.0004
" />
<path d="M-29.5442 48.0004
L-29.5442 48.1433
" />
<path d="M-29.5442 48.1433
L-30.2585 48.2861
" />
<path d="M-28.9013 48.6433
L-28.8299 48.7147
" />
<path d="M-28.8299 48.7147
L-28.9013 48.7861
" />
<path d="M-28.9013 48.7861
L-28.9727 48.7147
" />
<path d="M-28.9727 48.7147
L-28.9013 48.6433
" />
<path d="M-28.9013 48.6433
L-28.9013 48.7861
" />
<path d="M-28.9013 47.8576
L-28.8299 47.9290
" />
<path d="M-28.8299 47.9290
L-28.9013 48.0004
" />
<path d="M-28.9013 48.0004
L-28.9727 47.9290
" />
<path d="M-28.9727 47.9290
L-28.9013 47.8576
" />
<path d="M-28.9013 47.8576
L-28.9013 48.0004
" />
<path d="M-27.0442 47.2861
L-27.0442 48.5004
" />
<path d="M-27.0442 48.5004
L-26.9727 48.6433
" />
<path d="M-26.9727 48.6433
L-26.9013 48.7147
" />
<path d="M-26.9013 48.7147
L-26.7585 48.7861
" />
<path d="M-26.7585 48.7861
L-26.4727 48.7861
" />
<path d="M-26.4727 48.7861
L-26.3299 48.7147
" />
<path d="M-26.3299 48.7147
L-26.2585 48.6433
" />
<path d="M-26.2585 48.6433
L-26.1870 48.5004
" />
<path d="M-26.1870 48.5004
L-26.1870 47.2861
" />
<path d="M-25.5442 48.7147
L-25.4013 48.7861
" />
<path d="M-25.4013 48.7861
L-25.1156 48.7861
" />
<path d="M-25.1156 48.7861
L-24.9727 48.7147
" />
<path d="M-24.9727 48.7147
L-24.9013 48.5718
" />
<path d="M-24.9013 48.5718
L-24.9013 48.5004
" />
<path d="M-24.9013 48.5004
L-24.9727 48.3576
" />
<path d="M-24.9727 48.3576
L-25.1156 48.2861
" />
<path d="M-25.1156 48.2861
L-25.3299 48.2861
" />
<path d="M-25.3299 48.2861
L-25.4727 48.2147
" />
<path d="M-25.4727 48.2147
L-25.5442 48.0718
" />
<path d="M-25.5442 48.0718
L-25.5442 48.0004
" />
<path d="M-25.5442 48.0004
L-25.4727 47.8576
" />
<path d="M-25.4727 47.8576
L-25.3299 47.7861
" />
<path d="M-25.3299 47.7861
L-25.1156 47.7861
" />
<path d="M-25.1156 47.7861
L-24.9727 47.8576
" />
<path d="M-23.6870 48.7147
L-23.8299 48.7861
" />
<path d="M-23.8299 48.7861
L-24.1156 48.7861
" />
<path d="M-24.1156 48.7861
L-24.2585 48.7147
" />
<path d="M-24.2585 48.7147
L-24.3299 48.5718
" />
<path d="M-24.3299 48.5718
L-24.3299 48.0004
" />
<path d="M-24.3299 48.0004
L-24.2585 47.8576
" />
<path d="M-24.2585 47.8576
L-24.1156 47.7861
" />
<path d="M-24.1156 47.7861
L-23.8299 47.7861
" />
<path d="M-23.8299 47.7861
L-23.6870 47.8576
" />
<path d="M-23.6870 47.8576
L-23.6156 48.0004
" />
<path d="M-23.6156 48.0004
L-23.6156 48.1433
" />
<path d="M-23.6156 48.1433
L-24.3299 48.2861
" />
<path d="M-22.9727 48.7861
L-22.9727 47.7861
" />
<path d="M-22.9727 48.0718
L-22.9013 47.9290
" />
<path d="M-22.9013 47.9290
L-22.8299 47.8576
" />
<path d="M-22.8299 47.8576
L-22.6870 47.7861
" />
<path d="M-22.6870 47.7861
L-22.5442 47.7861
" />
</g><text x="51.0000" y="51.6500"
textLength="8.5071" font-size="2.0000" lengthAdjust="spacingAndGlyphs"
text-anchor="start" opacity="0" stroke-opacity="0">Id: 1/1</text>
<g class="stroked-text"><desc>Id: 1/1</desc>
<path d="M51.4558 51.5861
L51.4558 50.0861
" />
<path d="M52.8130 51.5861
L52.8130 50.0861
" />
<path d="M52.8130 51.5147
L52.6701 51.5861
" />
<path d="M52.6701 51.5861
L52.3844 51.5861
" />
<path d="M52.3844 51.5861
L52.2415 51.5147
" />
<path d="M52.2415 51.5147
L52.1701 51.4433
" />
<path d="M52.1701 51.4433
L52.0987 51.3004
" />
<path d="M52.0987 51.3004
L52.0987 50.8718
" />
<path d="M52.0987 50.8718
L52.1701 50.7290
" />
<path d="M52.1701 50.7290
L52.2415 50.6576
" />
<path d="M52.2415 50.6576
L52.3844 50.5861
" />
<path d="M52.3844 50.5861
L52.6701 50.5861
" />
<path d="M52.6701 50.5861
L52.8130 50.6576
" />
<path d="M53.5273 51.4433
L53.5987 51.5147
" />
<path d="M53.5987 51.5147
L53.5273 51.5861
" />
<path d="M53.5273 51.5861
L53.4558 51.5147
" />
<path d="M53.4558 51.5147
L53.5273 51.4433
" />
<path d="M53.5273 51.4433
L53.5273 51.5861
" />
<path d="M53.5273 50.6576
L53.5987 50.7290
" />
<path d="M53.5987 50.7290
L53.5273 50.8004
" />
<path d="M53.5273 50.8004
L53.4558 50.7290
" />
<path d="M53.4558 50.7290
L53.5273 50.6576
" />
<path d="M53.5273 50.6576
L53.5273 50.8004
" />
<path d="M56.1701 51.5861
L55.3130 51.5861
" />
<path d="M55.7415 51.5861
L55.7415 50.0861
" />
<path d="M55.7415 50.0861
L55.5987 50.3004
" />
<path d="M55.5987 50.3004
L55.4558 50.4433
" />
<path d="M55.4558 50.4433
L55.3130 50.5147
" />
<path d="M57.8844 50.0147
L56.5987 51.9433
" />
<path d="M59.1701 51.5861
L58.3130 51.5861
" />
<path d="M58.7415 51.5861
L58.7415 50.0861
" />
<path d="M58.7415 50.0861
L58.5987 50.3004
" />
<path d="M58.5987 50.3004
L58.4558 50.4433
" />
<path d="M58.4558 50.4433
L58.3130 50.5147
" />
</g><path d="M-35.0000 42.5000
L73.0000 42.5000
" />
</g>
<g style="fill:none;
stroke:#C872AB; stroke-width:0.4000; stroke-opacity:1;
stroke-linecap:round; stroke-linejoin:round;">
<text x="-34.0000" y="45.3000"
textLength="9.6571" font-size="2.6667" lengthAdjust="spacingAndGlyphs"
text-anchor="start" opacity="0" stroke-opacity="0">Title: </text>
<g class="stroked-text"><desc>Title: </desc>
<path d="M-33.3083 43.2044
L-32.1654 43.2044
" />
<path d="M-32.9868 45.2044
L-32.7368 43.2044
" />
<path d="M-31.7487 45.2044
L-31.5821 43.8711
" />
<path d="M-31.4987 43.2044
L-31.6059 43.2997
" />
<path d="M-31.6059 43.2997
L-31.5226 43.3949
" />
<path d="M-31.5226 43.3949
L-31.4154 43.2997
" />
<path d="M-31.4154 43.2997
L-31.4987 43.2044
" />
<path d="M-31.4987 43.2044
L-31.5226 43.3949
" />
<path d="M-30.9154 43.8711
L-30.1535 43.8711
" />
<path d="M-30.5464 43.2044
L-30.7607 44.9187
" />
<path d="M-30.7607 44.9187
L-30.6892 45.1092
" />
<path d="M-30.6892 45.1092
L-30.5107 45.2044
" />
<path d="M-30.5107 45.2044
L-30.3202 45.2044
" />
<path d="M-29.3678 45.2044
L-29.5464 45.1092
" />
<path d="M-29.5464 45.1092
L-29.6178 44.9187
" />
<path d="M-29.6178 44.9187
L-29.4035 43.2044
" />
<path d="M-27.8321 45.1092
L-28.0345 45.2044
" />
<path d="M-28.0345 45.2044
L-28.4154 45.2044
" />
<path d="M-28.4154 45.2044
L-28.5940 45.1092
" />
<path d="M-28.5940 45.1092
L-28.6654 44.9187
" />
<path d="M-28.6654 44.9187
L-28.5702 44.1568
" />
<path d="M-28.5702 44.1568
L-28.4511 43.9663
" />
<path d="M-28.4511 43.9663
L-28.2487 43.8711
" />
<path d="M-28.2487 43.8711
L-27.8678 43.8711
" />
<path d="M-27.8678 43.8711
L-27.6892 43.9663
" />
<path d="M-27.6892 43.9663
L-27.6178 44.1568
" />
<path d="M-27.6178 44.1568
L-27.6416 44.3473
" />
<path d="M-27.6416 44.3473
L-28.6178 44.5378
" />
<path d="M-26.8678 45.0140
L-26.7845 45.1092
" />
<path d="M-26.7845 45.1092
L-26.8916 45.2044
" />
<path d="M-26.8916 45.2044
L-26.9749 45.1092
" />
<path d="M-26.9749 45.1092
L-26.8678 45.0140
" />
<path d="M-26.8678 45.0140
L-26.8916 45.2044
" />
<path d="M-26.7368 43.9663
L-26.6535 44.0616
" />
<path d="M-26.6535 44.0616
L-26.7607 44.1568
" />
<path d="M-26.7607 44.1568
L-26.8440 44.0616
" />
<path d="M-26.8440 44.0616
L-26.7368 43.9663
" />
<path d="M-26.7368 43.9663
L-26.7607 44.1568
" />
</g></g>
<g style="fill:none;
stroke:#C872AB; stroke-width:0.1500; stroke-opacity:1;
stroke-linecap:round; stroke-linejoin:round;">
<text x="-34.0000" y="41.4500"
textLength="39.6500" font-size="2.0000" lengthAdjust="spacingAndGlyphs"
text-anchor="start" opacity="0" stroke-opacity="0">File: diffpair_test_routed.kicad_pcb</text>
<g class="stroked-text"><desc>File: diffpair_test_routed.kicad_pcb</desc>
<path d="M-33.0442 40.6004
L-33.5442 40.6004
" />
<path d="M-33.5442 41.3861
L-33.5442 39.8861
" />
<path d="M-33.5442 39.8861
L-32.8299 39.8861
" />
<path d="M-32.2585 41.3861
L-32.2585 40.3861
" />
<path d="M-32.2585 39.8861
L-32.3299 39.9576
" />
<path d="M-32.3299 39.9576
L-32.2585 40.0290
" />
<path d="M-32.2585 40.0290
L-32.1870 39.9576
" />
<path d="M-32.1870 39.9576
L-32.2585 39.8861
" />
<path d="M-32.2585 39.8861
L-32.2585 40.0290
" />
<path d="M-31.3299 41.3861
L-31.4727 41.3147
" />
<path d="M-31.4727 41.3147
L-31.5442 41.1718
" />
<path d="M-31.5442 41.1718
L-31.5442 39.8861
" />
<path d="M-30.1870 41.3147
L-30.3299 41.3861
" />
<path d="M-30.3299 41.3861
L-30.6156 41.3861
" />
<path d="M-30.6156 41.3861
L-30.7585 41.3147
" />
<path d="M-30.7585 41.3147
L-30.8299 41.1718
" />
<path d="M-30.8299 41.1718
L-30.8299 40.6004
" />
<path d="M-30.8299 40.6004
L-30.7585 40.4576
" />
<path d="M-30.7585 40.4576
L-30.6156 40.3861
" />
<path d="M-30.6156 40.3861
L-30.3299 40.3861
" />
<path d="M-30.3299 40.3861
L-30.1870 40.4576
" />
<path d="M-30.1870 40.4576
L-30.1156 40.6004
" />
<path d="M-30.1156 40.6004
L-30.1156 40.7433
" />
<path d="M-30.1156 40.7433
L-30.8299 40.8861
" />
<path d="M-29.4727 41.2433
L-29.4013 41.3147
" />
<path d="M-29.4013 41.3147
L-29.4727 41.3861
" />
<path d="M-29.4727 41.3861
L-29.5442 41.3147
" />
<path d="M-29.5442 41.3147
L-29.4727 41.2433
" />
<path d="M-29.4727 41.2433
L-29.4727 41.3861
" />
<path d="M-29.4727 40.4576
L-29.4013 40.5290
" />
<path d="M-29.4013 40.5290
L-29.4727 40.6004
" />
<path d="M-29.4727 40.6004
L-29.5442 40.5290
" />
<path d="M-29.5442 40.5290
L-29.4727 40.4576
" />
<path d="M-29.4727 40.4576
L-29.4727 40.6004
" />
<path d="M-26.9727 41.3861
L-26.9727 39.8861
" />
<path d="M-26.9727 41.3147
L-27.1156 41.3861
" />
<path d="M-27.1156 41.3861
L-27.4013 41.3861
" />
<path d="M-27.4013 41.3861
L-27.5442 41.3147
" />
<path d="M-27.5442 41.3147
L-27.6156 41.2433
" />
<path d="M-27.6156 41.2433
L-27.6870 41.1004
" />
<path d="M-27.6870 41.1004
L-27.6870 40.6718
" />
<path d="M-27.6870 40.6718
L-27.6156 40.5290
" />
<path d="M-27.6156 40.5290
L-27.5442 40.4576
" />
<path d="M-27.5442 40.4576
L-27.4013 40.3861
" />
<path d="M-27.4013 40.3861
L-27.1156 40.3861
" />
<path d="M-27.1156 40.3861
L-26.9727 40.4576
" />
<path d="M-26.2585 41.3861
L-26.2585 40.3861
" />
<path d="M-26.2585 39.8861
L-26.3299 39.9576
" />
<path d="M-26.3299 39.9576
L-26.2585 40.0290
" />
<path d="M-26.2585 40.0290
L-26.1870 39.9576
" />
<path d="M-26.1870 39.9576
L-26.2585 39.8861
" />
<path d="M-26.2585 39.8861
L-26.2585 40.0290
" />
<path d="M-25.7585 40.3861
L-25.1870 40.3861
" />
<path d="M-25.5442 41.3861
L-25.5442 40.1004
" />
<path d="M-25.5442 40.1004
L-25.4727 39.9576
" />
<path d="M-25.4727 39.9576
L-25.3299 39.8861
" />
<path d="M-25.3299 39.8861
L-25.1870 39.8861
" />
<path d="M-24.9013 40.3861
L-24.3299 40.3861
" />
<path d="M-24.6870 41.3861
L-24.6870 40.1004
" />
<path d="M-24.6870 40.1004
L-24.6156 39.9576
" />
<path d="M-24.6156 39.9576
L-24.4727 39.8861
" />
<path d="M-24.4727 39.8861
L-24.3299 39.8861
" />
<path d="M-23.8299 40.3861
L-23.8299 41.8861
" />
<path d="M-23.8299 40.4576
L-23.6870 40.3861
" />
<path d="M-23.6870 40.3861
L-23.4013 40.3861
" />
<path d="M-23.4013 40.3861
L-23.2585 40.4576
" />
<path d="M-23.2585 40.4576
L-23.1870 40.5290
" />
<path d="M-23.1870 40.5290
L-23.1156 40.6718
" />
<path d="M-23.1156 40.6718
L-23.1156 41.1004
" />
<path d="M-23.1156 41.1004
L-23.1870 41.2433
" />
<path d="M-23.1870 41.2433
L-23.2585 41.3147
" />
<path d="M-23.2585 41.3147
L-23.4013 41.3861
" />
<path d="M-23.4013 41.3861
L-23.6870 41.3861
" />
<path d="M-23.6870 41.3861
L-23.8299 41.3147
" />
<path d="M-21.8299 41.3861
L-21.8299 40.6004
" />
<path d="M-21.8299 40.6004
L-21.9013 40.4576
" />
<path d="M-21.9013 40.4576
L-22.0442 40.3861
" />
<path d="M-22.0442 40.3861
L-22.3299 40.3861
" />
<path d="M-22.3299 40.3861
L-22.4727 40.4576
" />
<path d="M-21.8299 41.3147
L-21.9727 41.3861
" />
<path d="M-21.9727 41.3861
L-22.3299 41.3861
" />
<path d="M-22.3299 41.3861
L-22.4727 41.3147
" />
<path d="M-22.4727 41.3147
L-22.5442 41.1718
" />
<path d="M-22.5442 41.1718
L-22.5442 41.0290
" />
<path d="M-22.5442 41.0290
L-22.4727 40.8861
" />
<path d="M-22.4727 40.8861
L-22.3299 40.8147
" />
<path d="M-22.3299 40.8147
L-21.9727 40.8147
" />
<path d="M-21.9727 40.8147
L-21.8299 40.7433
" />
<path d="M-21.1156 41.3861
L-21.1156 40.3861
" />
<path d="M-21.1156 39.8861
L-21.1870 39.9576
" />
<path d="M-21.1870 39.9576
L-21.1156 40.0290
" />
<path d="M-21.1156 40.0290
L-21.0442 39.9576
" />
<path d="M-21.0442 39.9576
L-21.1156 39.8861
" />
<path d="M-21.1156 39.8861
L-21.1156 40.0290
" />
<path d="M-20.4013 41.3861
L-20.4013 40.3861
" />
<path d="M-20.4013 40.6718
L-20.3299 40.5290
" />
<path d="M-20.3299 40.5290
L-20.2585 40.4576
" />
<path d="M-20.2585 40.4576
L-20.1156 40.3861
" />
<path d="M-20.1156 40.3861
L-19.9727 40.3861
" />
<path d="M-19.8299 41.5290
L-18.6870 41.5290
" />
<path d="M-18.5442 40.3861
L-17.9727 40.3861
" />
<path d="M-18.3299 39.8861
L-18.3299 41.1718
" />
<path d="M-18.3299 41.1718
L-18.2585 41.3147
" />
<path d="M-18.2585 41.3147
L-18.1156 41.3861
" />
<path d="M-18.1156 41.3861
L-17.9727 41.3861
" />
<path d="M-16.9013 41.3147
L-17.0442 41.3861
" />
<path d="M-17.0442 41.3861
L-17.3299 41.3861
" />
<path d="M-17.3299 41.3861
L-17.4727 41.3147
" />
<path d="M-17.4727 41.3147
L-17.5442 41.1718
" />
<path d="M-17.5442 41.1718
L-17.5442 40.6004
" />
<path d="M-17.5442 40.6004
L-17.4727 40.4576
" />
<path d="M-17.4727 40.4576
L-17.3299 40.3861
" />
<path d="M-17.3299 40.3861
L-17.0442 40.3861
" />
<path d="M-17.0442 40.3861
L-16.9013 40.4576
" />
<path d="M-16.9013 40.4576
L-16.8299 40.6004
" />
<path d="M-16.8299 40.6004
L-16.8299 40.7433
" />
<path d="M-16.8299 40.7433
L-17.5442 40.8861
" />
<path d="M-16.2585 41.3147
L-16.1156 41.3861
" />
<path d="M-16.1156 41.3861
L-15.8299 41.3861
" />
<path d="M-15.8299 41.3861
L-15.6870 41.3147
" />
<path d="M-15.6870 41.3147
L-15.6156 41.1718
" />
<path d="M-15.6156 41.1718
L-15.6156 41.1004
" />
<path d="M-15.6156 41.1004
L-15.6870 40.9576
" />
<path d="M-15.6870 40.9576
L-15.8299 40.8861
" />
<path d="M-15.8299 40.8861
L-16.0442 40.8861
" />
<path d="M-16.0442 40.8861
L-16.1870 40.8147
" />
<path d="M-16.1870 40.8147
L-16.2585 40.6718
" />
<path d="M-16.2585 40.6718
L-16.2585 40.6004
" />
<path d="M-16.2585 40.6004
L-16.1870 40.4576
" />
<path d="M-16.1870 40.4576
L-16.0442 40.3861
" />
<path d="M-16.0442 40.3861
L-15.8299 40.3861
" />
<path d="M-15.8299 40.3861
L-15.6870 40.4576
" />
<path d="M-15.1870 40.3861
L-14.6156 40.3861
" />
<path d="M-14.9727 39.8861
L-14.9727 41.1718
" />
<path d="M-14.9727 41.1718
L-14.9013 41.3147
" />
<path d="M-14.9013 41.3147
L-14.7585 41.3861
" />
<path d="M-14.7585 41.3861
L-14.6156 41.3861
" />
<path d="M-14.4727 41.5290
L-13.3299 41.5290
" />
<path d="M-12.9727 41.3861
L-12.9727 40.3861
" />
<path d="M-12.9727 40.6718
L-12.9013 40.5290
" />
<path d="M-12.9013 40.5290
L-12.8299 40.4576
" />
<path d="M-12.8299 40.4576
L-12.6870 40.3861
" />
<path d="M-12.6870 40.3861
L-12.5442 40.3861
" />
<path d="M-11.8299 41.3861
L-11.9727 41.3147
" />
<path d="M-11.9727 41.3147
L-12.0442 41.2433
" />
<path d="M-12.0442 41.2433
L-12.1156 41.1004
" />
<path d="M-12.1156 41.1004
L-12.1156 40.6718
" />
<path d="M-12.1156 40.6718
L-12.0442 40.5290
" />
<path d="M-12.0442 40.5290
L-11.9727 40.4576
" />
<path d="M-11.9727 40.4576
L-11.8299 40.3861
" />
<path d="M-11.8299 40.3861
L-11.6156 40.3861
" />
<path d="M-11.6156 40.3861
L-11.4727 40.4576
" />
<path d="M-11.4727 40.4576
L-11.4013 40.5290
" />
<path d="M-11.4013 40.5290
L-11.3299 40.6718
" />
<path d="M-11.3299 40.6718
L-11.3299 41.1004
" />
<path d="M-11.3299 41.1004
L-11.4013 41.2433
" />
<path d="M-11.4013 41.2433
L-11.4727 41.3147
" />
<path d="M-11.4727 41.3147
L-11.6156 41.3861
" />
<path d="M-11.6156 41.3861
L-11.8299 41.3861
" />
<path d="M-10.0442 40.3861
L-10.0442 41.3861
" />
<path d="M-10.6870 40.3861
L-10.6870 41.1718
" />
<path d="M-10.6870 41.1718
L-10.6156 41.3147
" />
<path d="M-10.6156 41.3147
L-10.4727 41.3861
" />
<path d="M-10.4727 41.3861
L-10.2585 41.3861
" />
<path d="M-10.2585 41.3861
L-10.1156 41.3147
" />
<path d="M-10.1156 41.3147
L-10.0442 41.2433
" />
<path d="M-9.5442 40.3861
L-8.9727 40.3861
" />
<path d="M-9.3299 39.8861
L-9.3299 41.1718
" />
<path d="M-9.3299 41.1718
L-9.2585 41.3147
" />
<path d="M-9.2585 41.3147
L-9.1156 41.3861
" />
<path d="M-9.1156 41.3861
L-8.9727 41.3861
" />
<path d="M-7.9013 41.3147
L-8.0442 41.3861
" />
<path d="M-8.0442 41.3861
L-8.3299 41.3861
" />
<path d="M-8.3299 41.3861
L-8.4727 41.3147
" />
<path d="M-8.4727 41.3147
L-8.5442 41.1718
" />
<path d="M-8.5442 41.1718
L-8.5442 40.6004
" />
<path d="M-8.5442 40.6004
L-8.4727 40.4576
" />
<path d="M-8.4727 40.4576
L-8.3299 40.3861
" />
<path d="M-8.3299 40.3861
L-8.0442 40.3861
" />
<path d="M-8.0442 40.3861
L-7.9013 40.4576
" />
<path d="M-7.9013 40.4576
L-7.8299 40.6004
" />
<path d="M-7.8299 40.6004
L-7.8299 40.7433
" />
<path d="M-7.8299 40.7433
L-8.5442 40.8861
" />
<path d="M-6.5442 41.3861
L-6.5442 39.8861
" />
<path d="M-6.5442 41.3147
L-6.6870 41.3861
" />
<path d="M-6.6870 41.3861
L-6.9727 41.3861
" />
<path d="M-6.9727 41.3861
L-7.1156 41.3147
" />
<path d="M-7.1156 41.3147
L-7.1870 41.2433
" />
<path d="M-7.1870 41.2433
L-7.2585 41.1004
" />
<path d="M-7.2585 41.1004
L-7.2585 40.6718
" />
<path d="M-7.2585 40.6718
L-7.1870 40.5290
" />
<path d="M-7.1870 40.5290
L-7.1156 40.4576
" />
<path d="M-7.1156 40.4576
L-6.9727 40.3861
" />
<path d="M-6.9727 40.3861
L-6.6870 40.3861
" />
<path d="M-6.6870 40.3861
L-6.5442 40.4576
" />
<path d="M-5.8299 41.2433
L-5.7585 41.3147
" />
<path d="M-5.7585 41.3147
L-5.8299 41.3861
" />
<path d="M-5.8299 41.3861
L-5.9013 41.3147
" />
<path d="M-5.9013 41.3147
L-5.8299 41.2433
" />
<path d="M-5.8299 41.2433
L-5.8299 41.3861
" />
<path d="M-5.1156 41.3861
L-5.1156 39.8861
" />
<path d="M-4.9727 40.8147
L-4.5442 41.3861
" />
<path d="M-4.5442 40.3861
L-5.1156 40.9576
" />
<path d="M-3.9013 41.3861
L-3.9013 40.3861
" />
<path d="M-3.9013 39.8861
L-3.9727 39.9576
" />
<path d="M-3.9727 39.9576
L-3.9013 40.0290
" />
<path d="M-3.9013 40.0290
L-3.8299 39.9576
" />
<path d="M-3.8299 39.9576
L-3.9013 39.8861
" />
<path d="M-3.9013 39.8861
L-3.9013 40.0290
" />
<path d="M-2.5442 41.3147
L-2.6870 41.3861
" />
<path d="M-2.6870 41.3861
L-2.9727 41.3861
" />
<path d="M-2.9727 41.3861
L-3.1156 41.3147
" />
<path d="M-3.1156 41.3147
L-3.1870 41.2433
" />
<path d="M-3.1870 41.2433
L-3.2585 41.1004
" />
<path d="M-3.2585 41.1004
L-3.2585 40.6718
" />
<path d="M-3.2585 40.6718
L-3.1870 40.5290
" />
<path d="M-3.1870 40.5290
L-3.1156 40.4576
" />
<path d="M-3.1156 40.4576
L-2.9727 40.3861
" />
<path d="M-2.9727 40.3861
L-2.6870 40.3861
" />
<path d="M-2.6870 40.3861
L-2.5442 40.4576
" />
<path d="M-1.2585 41.3861
L-1.2585 40.6004
" />
<path d="M-1.2585 40.6004
L-1.3299 40.4576
" />
<path d="M-1.3299 40.4576
L-1.4727 40.3861
" />
<path d="M-1.4727 40.3861
L-1.7585 40.3861
" />
<path d="M-1.7585 40.3861
L-1.9013 40.4576
" />
<path d="M-1.2585 41.3147
L-1.4013 41.3861
" />
<path d="M-1.4013 41.3861
L-1.7585 41.3861
" />
<path d="M-1.7585 41.3861
L-1.9013 41.3147
" />
<path d="M-1.9013 41.3147
L-1.9727 41.1718
" />
<path d="M-1.9727 41.1718
L-1.9727 41.0290
" />
<path d="M-1.9727 41.0290
L-1.9013 40.8861
" />
<path d="M-1.9013 40.8861
L-1.7585 40.8147
" />
<path d="M-1.7585 40.8147
L-1.4013 40.8147
" />
<path d="M-1.4013 40.8147
L-1.2585 40.7433
" />
<path d="M0.0987 41.3861
L0.0987 39.8861
" />
<path d="M0.0987 41.3147
L-0.0442 41.3861
" />
<path d="M-0.0442 41.3861
L-0.3299 41.3861
" />
<path d="M-0.3299 41.3861
L-0.4727 41.3147
" />
<path d="M-0.4727 41.3147
L-0.5442 41.2433
" />
<path d="M-0.5442 41.2433
L-0.6156 41.1004
" />
<path d="M-0.6156 41.1004
L-0.6156 40.6718
" />
<path d="M-0.6156 40.6718
L-0.5442 40.5290
" />
<path d="M-0.5442 40.5290
L-0.4727 40.4576
" />
<path d="M-0.4727 40.4576
L-0.3299 40.3861
" />
<path d="M-0.3299 40.3861
L-0.0442 40.3861
" />
<path d="M-0.0442 40.3861
L0.0987 40.4576
" />
<path d="M0.4558 41.5290
L1.5987 41.5290
" />
<path d="M1.9558 40.3861
L1.9558 41.8861
" />
<path d="M1.9558 40.4576
L2.0987 40.3861
" />
<path d="M2.0987 40.3861
L2.3844 40.3861
" />
<path d="M2.3844 40.3861
L2.5273 40.4576
" />
<path d="M2.5273 40.4576
L2.5987 40.5290
" />
<path d="M2.5987 40.5290
L2.6701 40.6718
" />
<path d="M2.6701 40.6718
L2.6701 41.1004
" />
<path d="M2.6701 41.1004
L2.5987 41.2433
" />
<path d="M2.5987 41.2433
L2.5273 41.3147
" />
<path d="M2.5273 41.3147
L2.3844 41.3861
" />
<path d="M2.3844 41.3861
L2.0987 41.3861
" />
<path d="M2.0987 41.3861
L1.9558 41.3147
" />
<path d="M3.9558 41.3147
L3.8130 41.3861
" />
<path d="M3.8130 41.3861
L3.5273 41.3861
" />
<path d="M3.5273 41.3861
L3.3844 41.3147
" />
<path d="M3.3844 41.3147
L3.3130 41.2433
" />
<path d="M3.3130 41.2433
L3.2415 41.1004
" />
<path d="M3.2415 41.1004
L3.2415 40.6718
" />
<path d="M3.2415 40.6718
L3.3130 40.5290
" />
<path d="M3.3130 40.5290
L3.3844 40.4576
" />
<path d="M3.3844 40.4576
L3.5273 40.3861
" />
<path d="M3.5273 40.3861
L3.8130 40.3861
" />
<path d="M3.8130 40.3861
L3.9558 40.4576
" />
<path d="M4.5987 41.3861
L4.5987 39.8861
" />
<path d="M4.5987 40.4576
L4.7415 40.3861
" />
<path d="M4.7415 40.3861
L5.0273 40.3861
" />
<path d="M5.0273 40.3861
L5.1701 40.4576
" />
<path d="M5.1701 40.4576
L5.2415 40.5290
" />
<path d="M5.2415 40.5290
L5.3130 40.6718
" />
<path d="M5.3130 40.6718
L5.3130 41.1004
" />
<path d="M5.3130 41.1004
L5.2415 41.2433
" />
<path d="M5.2415 41.2433
L5.1701 41.3147
" />
<path d="M5.1701 41.3147
L5.0273 41.3861
" />
<path d="M5.0273 41.3861
L4.7415 41.3861
" />
<path d="M4.7415 41.3861
L4.5987 41.3147
" />
</g><path d="M-35.0000 36.5000
L73.0000 36.5000
" />
<text x="-34.0000" y="38.7500"
textLength="8.2214" font-size="2.0000" lengthAdjust="spacingAndGlyphs"
text-anchor="start" opacity="0" stroke-opacity="0">Sheet: </text>
<g class="stroked-text"><desc>Sheet: </desc>
<path d="M-33.6156 38.6147
L-33.4013 38.6861
" />
<path d="M-33.4013 38.6861
L-33.0442 38.6861
" />
<path d="M-33.0442 38.6861
L-32.9013 38.6147
" />
<path d="M-32.9013 38.6147
L-32.8299 38.5433
" />
<path d="M-32.8299 38.5433
L-32.7585 38.4004
" />
<path d="M-32.7585 38.4004
L-32.7585 38.2576
" />
<path d="M-32.7585 38.2576
L-32.8299 38.1147
" />
<path d="M-32.8299 38.1147
L-32.9013 38.0433
" />
<path d="M-32.9013 38.0433
L-33.0442 37.9718
" />
<path d="M-33.0442 37.9718
L-33.3299 37.9004
" />
<path d="M-33.3299 37.9004
L-33.4727 37.8290
" />
<path d="M-33.4727 37.8290
L-33.5442 37.7576
" />
<path d="M-33.5442 37.7576
L-33.6156 37.6147
" />
<path d="M-33.6156 37.6147
L-33.6156 37.4718
" />
<path d="M-33.6156 37.4718
L-33.5442 37.3290
" />
<path d="M-33.5442 37.3290
L-33.4727 37.2576
" />
<path d="M-33.4727 37.2576
L-33.3299 37.1861
" />
<path d="M-33.3299 37.1861
L-32.9727 37.1861
" />
<path d="M-32.9727 37.1861
L-32.7585 37.2576
" />
<path d="M-32.1156 38.6861
L-32.1156 37.1861
" />
<path d="M-31.4727 38.6861
L-31.4727 37.9004
" />
<path d="M-31.4727 37.9004
L-31.5442 37.7576
" />
<path d="M-31.5442 37.7576
L-31.6870 37.6861
" />
<path d="M-31.6870 37.6861
L-31.9013 37.6861
" />
<path d="M-31.9013 37.6861
L-32.0442 37.7576
" />
<path d="M-32.0442 37.7576
L-32.1156 37.8290
" />
<path d="M-30.1870 38.6147
L-30.3299 38.6861
" />
<path d="M-30.3299 38.6861
L-30.6156 38.6861
" />
<path d="M-30.6156 38.6861
L-30.7585 38.6147
" />
<path d="M-30.7585 38.6147
L-30.8299 38.4718
" />
<path d="M-30.8299 38.4718
L-30.8299 37.9004
" />
<path d="M-30.8299 37.9004
L-30.7585 37.7576
" />
<path d="M-30.7585 37.7576
L-30.6156 37.6861
" />
<path d="M-30.6156 37.6861
L-30.3299 37.6861
" />
<path d="M-30.3299 37.6861
L-30.1870 37.7576
" />
<path d="M-30.1870 37.7576
L-30.1156 37.9004
" />
<path d="M-30.1156 37.9004
L-30.1156 38.0433
" />
<path d="M-30.1156 38.0433
L-30.8299 38.1861
" />
<path d="M-28.9013 38.6147
L-29.0442 38.6861
" />
<path d="M-29.0442 38.6861
L-29.3299 38.6861
" />
<path d="M-29.3299 38.6861
L-29.4727 38.6147
" />
<path d="M-29.4727 38.6147
L-29.5442 38.4718
" />
<path d="M-29.5442 38.4718
L-29.5442 37.9004
" />
<path d="M-29.5442 37.9004
L-29.4727 37.7576
" />
<path d="M-29.4727 37.7576
L-29.3299 37.6861
" />
<path d="M-29.3299 37.6861
L-29.0442 37.6861
" />
<path d="M-29.0442 37.6861
L-28.9013 37.7576
" />
<path d="M-28.9013 37.7576
L-28.8299 37.9004
" />
<path d="M-28.8299 37.9004
L-28.8299 38.0433
" />
<path d="M-28.8299 38.0433
L-29.5442 38.1861
" />
<path d="M-28.4013 37.6861
L-27.8299 37.6861
" />
<path d="M-28.1870 37.1861
L-28.1870 38.4718
" />
<path d="M-28.1870 38.4718
L-28.1156 38.6147
" />
<path d="M-28.1156 38.6147
L-27.9727 38.6861
" />
<path d="M-27.9727 38.6861
L-27.8299 38.6861
" />
<path d="M-27.3299 38.5433
L-27.2585 38.6147
" />
<path d="M-27.2585 38.6147
L-27.3299 38.6861
" />
<path d="M-27.3299 38.6861
L-27.4013 38.6147
" />
<path d="M-27.4013 38.6147
L-27.3299 38.5433
" />
<path d="M-27.3299 38.5433
L-27.3299 38.6861
" />
<path d="M-27.3299 37.7576
L-27.2585 37.8290
" />
<path d="M-27.2585 37.8290
L-27.3299 37.9004
" />
<path d="M-27.3299 37.9004
L-27.4013 37.8290
" />
<path d="M-27.4013 37.8290
L-27.3299 37.7576
" />
<path d="M-27.3299 37.7576
L-27.3299 37.9004
" />
</g></g>
<g style="fill:none;
stroke:#C872AB; stroke-width:0.3000; stroke-opacity:1;
stroke-linecap:round; stroke-linejoin:round;">
<text x="-34.0000" y="35.7500"
textLength="0.9000" font-size="2.0000" lengthAdjust="spacingAndGlyphs"
text-anchor="start" opacity="0" stroke-opacity="0"></text>
<g class="stroked-text"><desc></desc>
</g></g>
<g style="fill:none;
stroke:#C872AB; stroke-width:0.1500; stroke-opacity:1;
stroke-linecap:round; stroke-linejoin:round;">
<text x="-34.0000" y="32.7500"
textLength="0.4500" font-size="2.0000" lengthAdjust="spacingAndGlyphs"
text-anchor="start" opacity="0" stroke-opacity="0"></text>
<g class="stroked-text"><desc></desc>
</g><text x="-34.0000" y="29.7500"
textLength="0.4500" font-size="2.0000" lengthAdjust="spacingAndGlyphs"
text-anchor="start" opacity="0" stroke-opacity="0"></text>
<g class="stroked-text"><desc></desc>
</g><text x="-34.0000" y="26.7500"
textLength="0.4500" font-size="2.0000" lengthAdjust="spacingAndGlyphs"
text-anchor="start" opacity="0" stroke-opacity="0"></text>
<g class="stroked-text"><desc></desc>
</g><text x="-34.0000" y="23.7500"
textLength="0.4500" font-size="2.0000" lengthAdjust="spacingAndGlyphs"
text-anchor="start" opacity="0" stroke-opacity="0"></text>
<g class="stroked-text"><desc></desc>
</g><path d="M-15.0000 46.5000
L-15.0000 49.5000
" />
<path d="M49.0000 46.5000
L49.0000 53.0000
" />
<path style="fill:#4D7FC4; fill-opacity:1.0000; stroke:none;fill-rule:evenodd;"
d="M 6.1500,7.8500
6.1500,6.1500
7.8500,6.1500
7.8500,7.8500
Z" />
</g>
<g style="fill:#4D7FC4; fill-opacity:1.0000; stroke:none;">
<circle cx="7.0000" cy="9.5400" r="0.8500" />
<path style="fill:#4D7FC4; fill-opacity:1.0000; stroke:none;fill-rule:evenodd;"
d="M 6.1500,21.8500
6.1500,20.1500
7.8500,20.1500
7.8500,21.8500
Z" />
<circle cx="7.0000" cy="23.5400" r="0.8500" />
<circle cx="7.0000" cy="26.0800" r="0.8500" />
<circle cx="7.0000" cy="28.6200" r="0.8500" />
<circle cx="7.0000" cy="31.1600" r="0.8500" />
<circle cx="7.0000" cy="33.7000" r="0.8500" />
<circle cx="7.0000" cy="36.2400" r="0.8500" />
<circle cx="7.0000" cy="38.7800" r="0.8500" />
<path style="fill:#4D7FC4; fill-opacity:1.0000; stroke:none;fill-rule:evenodd;"
d="M 82.1500,21.8500
82.1500,20.1500
83.8500,20.1500
83.8500,21.8500
Z" />
<circle cx="83.0000" cy="23.5400" r="0.8500" />
<circle cx="83.0000" cy="26.0800" r="0.8500" />
<circle cx="83.0000" cy="28.6200" r="0.8500" />
<circle cx="83.0000" cy="31.1600" r="0.8500" />
<circle cx="83.0000" cy="33.7000" r="0.8500" />
<circle cx="83.0000" cy="36.2400" r="0.8500" />
<circle cx="83.0000" cy="38.7800" r="0.8500" />
<circle cx="66.0250" cy="39.5000" r="0.3000" />
<circle cx="66.6750" cy="53.0950" r="0.3000" />
<circle cx="22.0250" cy="39.5000" r="0.3000" />
<circle cx="25.3250" cy="29.0950" r="0.3000" />
<circle cx="22.0250" cy="13.0000" r="0.3000" />
<circle cx="22.0250" cy="25.0000" r="0.3000" />
<circle cx="66.6750" cy="41.0950" r="0.3000" />
<circle cx="22.0250" cy="49.0000" r="0.3000" />
<circle cx="25.3250" cy="53.0950" r="0.3000" />
<circle cx="11.8500" cy="7.0000" r="0.3000" />
<circle cx="66.6750" cy="17.0950" r="0.3000" />
<circle cx="22.0250" cy="27.5000" r="0.3000" />
<circle cx="25.3250" cy="41.0950" r="0.3000" />
<circle cx="66.0250" cy="27.5000" r="0.3000" />
<circle cx="25.3250" cy="17.0950" r="0.3000" />
<circle cx="22.0250" cy="37.0000" r="0.3000" />
<circle cx="66.0250" cy="13.0000" r="0.3000" />
<circle cx="66.0250" cy="37.0000" r="0.3000" />
<circle cx="66.0250" cy="51.5000" r="0.3000" />
<circle cx="22.0250" cy="15.5000" r="0.3000" />
<circle cx="66.0250" cy="15.5000" r="0.3000" />
<circle cx="66.0250" cy="25.0000" r="0.3000" />
<circle cx="66.0250" cy="49.0000" r="0.3000" />
<circle cx="66.6750" cy="29.0950" r="0.3000" />
<circle cx="22.0250" cy="51.5000" r="0.3000" />
<circle cx="25.9750" cy="37.0000" r="0.3000" />
<circle cx="25.9750" cy="13.0000" r="0.3000" />
<circle cx="20.0250" cy="55.0000" r="0.3000" />
<circle cx="25.9750" cy="49.0000" r="0.3000" />
<circle cx="69.9750" cy="37.0000" r="0.3000" />
<circle cx="66.6750" cy="32.9050" r="0.3000" />
<circle cx="25.3250" cy="56.9050" r="0.3000" />
<circle cx="69.9750" cy="15.5000" r="0.3000" />
<circle cx="25.9750" cy="25.0000" r="0.3000" />
<circle cx="20.0250" cy="19.0000" r="0.3000" />
<circle cx="25.9750" cy="15.5000" r="0.3000" />
<circle cx="69.9750" cy="25.0000" r="0.3000" />
<circle cx="25.3250" cy="20.9050" r="0.3000" />
<circle cx="69.9750" cy="27.5000" r="0.3000" />
<circle cx="66.6750" cy="20.9050" r="0.3000" />
<circle cx="69.9750" cy="51.5000" r="0.3000" />
<circle cx="25.3250" cy="32.9050" r="0.3000" />
<circle cx="66.6750" cy="44.9050" r="0.3000" />
<circle cx="20.0250" cy="43.0000" r="0.3000" />
<circle cx="25.9750" cy="51.5000" r="0.3000" />
<circle cx="25.9750" cy="27.5000" r="0.3000" />
<circle cx="69.9750" cy="49.0000" r="0.3000" />
<circle cx="25.9750" cy="39.5000" r="0.3000" />
<circle cx="69.9750" cy="13.0000" r="0.3000" />
<circle cx="16.1500" cy="7.0000" r="0.3000" />
<circle cx="20.0250" cy="31.0000" r="0.3000" />
<circle cx="66.6750" cy="56.9050" r="0.3000" />
<circle cx="25.3250" cy="44.9050" r="0.3000" />
<circle cx="69.9750" cy="39.5000" r="0.3000" />
<circle cx="16.7250" cy="19.8000" r="0.3000" />
<circle cx="17.6500" cy="31.7250" r="0.3000" />
<circle cx="17.6000" cy="30.2250" r="0.3000" />
<circle cx="25.3500" cy="30.3750" r="0.3000" />
<circle cx="17.6250" cy="43.8000" r="0.3000" />
<circle cx="25.2500" cy="42.7250" r="0.3000" />
<circle cx="25.2500" cy="54.7250" r="0.3000" />
<circle cx="17.6250" cy="55.8000" r="0.3000" />
<circle cx="68.4750" cy="52.8000" r="0.3000" />
</g>
<g style="fill:none;
stroke:#4D7FC4; stroke-width:0.2000; stroke-opacity:1;
stroke-linecap:round; stroke-linejoin:round;">
<path d="M7.0000 21.0000
L8.2000 19.8000
" />
<path d="M8.2000 19.8000
L16.7250 19.8000
" />
<path d="M17.4000 30.0000
L17.6000 30.2000
" />
<path d="M20.5714 34.4464
L21.2786 34.4464
" />
<path d="M17.6500 31.7250
L20.3714 34.4464
" />
<path d="M7.0000 26.0800
L10.9200 30.0000
" />
<path d="M21.2786 34.4464
L25.3500 30.3750
" />
<path d="M20.3714 34.4464
L20.5714 34.4464
" />
<path d="M17.6000 30.2000
L17.6000 30.2250
" />
<path d="M10.9200 30.0000
L17.4000 30.0000
" />
<path d="M21.3536 46.8214
L25.2500 42.9250
" />
<path d="M20.6464 46.8214
L21.3536 46.8214
" />
<path d="M25.2500 42.9250
L25.2500 42.7250
" />
<path d="M17.6250 43.8000
L20.6464 46.8214
" />
<path d="M17.6250 55.8000
L20.6464 58.8214
" />
<path d="M20.6464 58.8214
L21.3536 58.8214
" />
<path d="M25.2500 54.9250
L25.2500 54.7250
" />
<path d="M21.3536 58.8214
L25.2500 54.9250
" />
<path d="M82.0500 37.0500
L71.0250 48.0750
" />
<path d="M69.2250 50.4750
L68.4750 51.2250
" />
<path d="M71.0250 49.7250
L70.2750 50.4750
" />
<path d="M70.2750 50.4750
L69.2250 50.4750
" />
<path d="M82.2000 37.0400
L82.2000 37.0500
" />
<path d="M68.4750 51.2250
L68.4750 52.8000
" />
<path d="M82.2000 37.0500
L82.0500 37.0500
" />
<path d="M71.0250 48.0750
L71.0250 49.7250
" />
<path d="M83.0000 36.2400
L82.2000 37.0400
" />
<path style="fill:none;
stroke:#D0D2CD; stroke-width:0.0500; stroke-opacity:1;
stroke-linecap:round; stroke-linejoin:round;fill:none"
d="M 0.0000,0.0000
90.0000,0.0000
90.0000,70.0000
0.0000,70.0000
Z" />
</g>
<g style="fill:#FFFFFF; fill-opacity:1.0000; stroke:none;">
<circle cx="66.0250" cy="39.5000" r="0.1500" />
<circle cx="66.6750" cy="53.0950" r="0.1500" />
<circle cx="22.0250" cy="39.5000" r="0.1500" />
<circle cx="25.3250" cy="29.0950" r="0.1500" />
<circle cx="22.0250" cy="13.0000" r="0.1500" />
<circle cx="22.0250" cy="25.0000" r="0.1500" />
<circle cx="66.6750" cy="41.0950" r="0.1500" />
<circle cx="22.0250" cy="49.0000" r="0.1500" />
<circle cx="25.3250" cy="53.0950" r="0.1500" />
<circle cx="11.8500" cy="7.0000" r="0.1500" />
<circle cx="66.6750" cy="17.0950" r="0.1500" />
<circle cx="22.0250" cy="27.5000" r="0.1500" />
<circle cx="25.3250" cy="41.0950" r="0.1500" />
<circle cx="66.0250" cy="27.5000" r="0.1500" />
<circle cx="25.3250" cy="17.0950" r="0.1500" />
<circle cx="22.0250" cy="37.0000" r="0.1500" />
<circle cx="66.0250" cy="13.0000" r="0.1500" />
<circle cx="66.0250" cy="37.0000" r="0.1500" />
<circle cx="66.0250" cy="51.5000" r="0.1500" />
<circle cx="22.0250" cy="15.5000" r="0.1500" />
<circle cx="66.0250" cy="15.5000" r="0.1500" />
<circle cx="66.0250" cy="25.0000" r="0.1500" />
<circle cx="66.0250" cy="49.0000" r="0.1500" />
<circle cx="66.6750" cy="29.0950" r="0.1500" />
<circle cx="22.0250" cy="51.5000" r="0.1500" />
<circle cx="25.9750" cy="37.0000" r="0.1500" />
<circle cx="25.9750" cy="13.0000" r="0.1500" />
<circle cx="20.0250" cy="55.0000" r="0.1500" />
<circle cx="25.9750" cy="49.0000" r="0.1500" />
<circle cx="69.9750" cy="37.0000" r="0.1500" />
<circle cx="66.6750" cy="32.9050" r="0.1500" />
<circle cx="25.3250" cy="56.9050" r="0.1500" />
<circle cx="69.9750" cy="15.5000" r="0.1500" />
<circle cx="25.9750" cy="25.0000" r="0.1500" />
<circle cx="20.0250" cy="19.0000" r="0.1500" />
<circle cx="25.9750" cy="15.5000" r="0.1500" />
<circle cx="69.9750" cy="25.0000" r="0.1500" />
<circle cx="25.3250" cy="20.9050" r="0.1500" />
<circle cx="69.9750" cy="27.5000" r="0.1500" />
<circle cx="66.6750" cy="20.9050" r="0.1500" />
<circle cx="69.9750" cy="51.5000" r="0.1500" />
<circle cx="25.3250" cy="32.9050" r="0.1500" />
<circle cx="66.6750" cy="44.9050" r="0.1500" />
<circle cx="20.0250" cy="43.0000" r="0.1500" />
<circle cx="25.9750" cy="51.5000" r="0.1500" />
<circle cx="25.9750" cy="27.5000" r="0.1500" />
<circle cx="69.9750" cy="49.0000" r="0.1500" />
<circle cx="25.9750" cy="39.5000" r="0.1500" />
<circle cx="69.9750" cy="13.0000" r="0.1500" />
<circle cx="16.1500" cy="7.0000" r="0.1500" />
<circle cx="20.0250" cy="31.0000" r="0.1500" />
<circle cx="66.6750" cy="56.9050" r="0.1500" />
<circle cx="25.3250" cy="44.9050" r="0.1500" />
<circle cx="69.9750" cy="39.5000" r="0.1500" />
<circle cx="16.7250" cy="19.8000" r="0.1500" />
<circle cx="17.6500" cy="31.7250" r="0.1500" />
<circle cx="17.6000" cy="30.2250" r="0.1500" />
<circle cx="25.3500" cy="30.3750" r="0.1500" />
<circle cx="17.6250" cy="43.8000" r="0.1500" />
<circle cx="25.2500" cy="42.7250" r="0.1500" />
<circle cx="25.2500" cy="54.7250" r="0.1500" />
<circle cx="17.6250" cy="55.8000" r="0.1500" />
<circle cx="68.4750" cy="52.8000" r="0.1500" />
</g>
<g style="fill:#FFFFFF; fill-opacity:1.0000; stroke:none;">
<circle cx="7.0000" cy="7.0000" r="0.5000" />
</g>
<g style="fill:#FFFFFF; fill-opacity:1.0000; stroke:none;">
<circle cx="7.0000" cy="9.5400" r="0.5000" />
</g>
<g style="fill:#FFFFFF; fill-opacity:1.0000; stroke:none;">
<circle cx="7.0000" cy="21.0000" r="0.5000" />
</g>
<g style="fill:#FFFFFF; fill-opacity:1.0000; stroke:none;">
<circle cx="7.0000" cy="23.5400" r="0.5000" />
</g>
<g style="fill:#FFFFFF; fill-opacity:1.0000; stroke:none;">
<circle cx="7.0000" cy="26.0800" r="0.5000" />
</g>
<g style="fill:#FFFFFF; fill-opacity:1.0000; stroke:none;">
<circle cx="7.0000" cy="28.6200" r="0.5000" />
</g>
<g style="fill:#FFFFFF; fill-opacity:1.0000; stroke:none;">
<circle cx="7.0000" cy="31.1600" r="0.5000" />
</g>
<g style="fill:#FFFFFF; fill-opacity:1.0000; stroke:none;">
<circle cx="7.0000" cy="33.7000" r="0.5000" />
</g>
<g style="fill:#FFFFFF; fill-opacity:1.0000; stroke:none;">
<circle cx="7.0000" cy="36.2400" r="0.5000" />
</g>
<g style="fill:#FFFFFF; fill-opacity:1.0000; stroke:none;">
<circle cx="7.0000" cy="38.7800" r="0.5000" />
</g>
<g style="fill:#FFFFFF; fill-opacity:1.0000; stroke:none;">
<circle cx="83.0000" cy="21.0000" r="0.5000" />
</g>
<g style="fill:#FFFFFF; fill-opacity:1.0000; stroke:none;">
<circle cx="83.0000" cy="23.5400" r="0.5000" />
</g>
<g style="fill:#FFFFFF; fill-opacity:1.0000; stroke:none;">
<circle cx="83.0000" cy="26.0800" r="0.5000" />
</g>
<g style="fill:#FFFFFF; fill-opacity:1.0000; stroke:none;">
<circle cx="83.0000" cy="28.6200" r="0.5000" />
</g>
<g style="fill:#FFFFFF; fill-opacity:1.0000; stroke:none;">
<circle cx="83.0000" cy="31.1600" r="0.5000" />
</g>
<g style="fill:#FFFFFF; fill-opacity:1.0000; stroke:none;">
<circle cx="83.0000" cy="33.7000" r="0.5000" />
</g>
<g style="fill:#FFFFFF; fill-opacity:1.0000; stroke:none;">
<circle cx="83.0000" cy="36.2400" r="0.5000" />
</g>
<g style="fill:#FFFFFF; fill-opacity:1.0000; stroke:none;">
<circle cx="83.0000" cy="38.7800" r="0.5000" />
</g>
</svg>
